<?xml version="1.0" standalone="no"?>
<!DOCTYPE svg PUBLIC "-//W3C//DTD SVG 1.1//EN" "http://www.w3.org/Graphics/SVG/1.1/DTD/svg11.dtd" >
<svg>
<metadata>
Created by FontForge 20120731 at Wed Nov 12 12:52:58 2014
 By Ana Isabel Carvalho
This Font Software is licensed under the SIL Open Font License, Version 1.1.
You should have received a copy of the license along with this Font Software
either in stand-alone text files, human-readable headers or in the appropriate
machine-readable metadata fields within text or binary files.

If this is not the case, go to http://scripts.sil.org/OFL for all
the details including a FAQ.

This program is distributed in the hope that it will be useful, but WITHOUT ANY
WARRANTY; without even the implied warranty of MERCHANTABILITY or FITNESS FOR A
PARTICULAR PURPOSE. See the SIL Open Font License for more details.
</metadata>
<defs>
<font id="Setperset-Regular" horiz-adv-x="1125" >
  <font-face 
    font-family="Setperset"
    font-weight="400"
    font-stretch="normal"
    units-per-em="1500"
    panose-1="2 0 5 3 0 0 0 0 0 0"
    ascent="1300"
    descent="-200"
    x-height="1000"
    cap-height="1000"
    bbox="0 0 1125 1000"
    underline-thickness="125"
    underline-position="249"
    stemh="125"
    stemv="125"
    unicode-range="U+0020-00A0"
  />
<missing-glyph horiz-adv-x="750" 
d="M75 0v866h600v-866h-600zM150 75h450v716h-450v-716z" />
    <glyph glyph-name=".notdef" horiz-adv-x="750" 
d="M75 0v866h600v-866h-600zM150 75h450v716h-450v-716z" />
    <glyph glyph-name="space" unicode=" " horiz-adv-x="875" 
 />
    <glyph glyph-name="zero" unicode="0" 
d="M256 875c-3 0 -6 3 -6 6v113c0 3 3 6 6 6h613c3 0 6 -3 6 -6v-119h119c3 0 6 -3 6 -6v-738c0 -3 -3 -6 -6 -6h-738c-3 0 -6 3 -6 6v119h-119c-3 0 -6 3 -6 6v613c0 3 3 6 6 6h113c3 0 6 -3 6 -6v-494h119c3 0 6 -3 6 -6v-119h500v500h-119c-3 0 -6 3 -6 6v119h-494z
M631 625c-3 0 -6 3 -6 6v113c0 3 3 6 6 6h113c3 0 6 -3 6 -6v-113c0 -3 -3 -6 -6 -6h-113zM506 500c-3 0 -6 3 -6 6v113c0 3 3 6 6 6h113c3 0 6 -3 6 -6v-113c0 -3 -3 -6 -6 -6h-113zM381 375c-3 0 -6 3 -6 6v113c0 3 3 6 6 6h113c3 0 6 -3 6 -6v-113c0 -3 -3 -6 -6 -6h-113
z" />
    <glyph glyph-name="one" unicode="1" 
d="M381 750c-3 0 -6 3 -6 6v113c0 3 3 6 6 6h119v119c0 3 3 6 6 6h113c3 0 6 -3 6 -6v-744h494c3 0 6 -3 6 -6v-113c0 -3 -3 -6 -6 -6h-1113c-3 0 -6 3 -6 6v113c0 3 3 6 6 6h494v500h-119zM256 625c-3 0 -6 3 -6 6v113c0 3 3 6 6 6h113c3 0 6 -3 6 -6v-113
c0 -3 -3 -6 -6 -6h-113zM131 500c-3 0 -6 3 -6 6v113c0 3 3 6 6 6h113c3 0 6 -3 6 -6v-113c0 -3 -3 -6 -6 -6h-113z" />
    <glyph glyph-name="two" unicode="2" 
d="M256 875c-3 0 -6 3 -6 6v113c0 3 3 6 6 6h613c3 0 6 -3 6 -6v-113c0 -3 -3 -6 -6 -6h-613zM131 750c-3 0 -6 3 -6 6v113c0 3 3 6 6 6h113c3 0 6 -3 6 -6v-113c0 -3 -3 -6 -6 -6h-113zM881 750c-3 0 -6 3 -6 6v113c0 3 3 6 6 6h113c3 0 6 -3 6 -6v-113c0 -3 -3 -6 -6 -6
h-113zM631 625c-3 0 -6 3 -6 6v113c0 3 3 6 6 6h238c3 0 6 -3 6 -6v-113c0 -3 -3 -6 -6 -6h-238zM506 500c-3 0 -6 3 -6 6v113c0 3 3 6 6 6h113c3 0 6 -3 6 -6v-113c0 -3 -3 -6 -6 -6h-113zM256 375c-3 0 -6 3 -6 6v113c0 3 3 6 6 6h238c3 0 6 -3 6 -6v-113
c0 -3 -3 -6 -6 -6h-238zM131 125c-3 0 -6 3 -6 6v238c0 3 3 6 6 6h113c3 0 6 -3 6 -6v-119h744c3 0 6 -3 6 -6v-113c0 -3 -3 -6 -6 -6h-863z" />
    <glyph glyph-name="three" unicode="3" 
d="M256 875c-3 0 -6 3 -6 6v113c0 3 3 6 6 6h613c3 0 6 -3 6 -6v-119h119c3 0 6 -3 6 -6v-113c0 -3 -3 -6 -6 -6h-119v-119c0 -3 -3 -6 -6 -6h-113c-3 0 -6 3 -6 6v244h-494zM131 625c-3 0 -6 3 -6 6v238c0 3 3 6 6 6h113c3 0 6 -3 6 -6v-238c0 -3 -3 -6 -6 -6h-113z
M506 500c-3 0 -6 3 -6 6v113c0 3 3 6 6 6h238c3 0 6 -3 6 -6v-113c0 -3 -3 -6 -6 -6h-238zM131 250c-3 0 -6 3 -6 6v238c0 3 3 6 6 6h113c3 0 6 -3 6 -6v-238c0 -3 -3 -6 -6 -6h-113zM256 125c-3 0 -6 3 -6 6v113c0 3 3 6 6 6h494v244c0 3 3 6 6 6h113c3 0 6 -3 6 -6v-119
h119c3 0 6 -3 6 -6v-113c0 -3 -3 -6 -6 -6h-119v-119c0 -3 -3 -6 -6 -6h-613z" />
    <glyph glyph-name="four" unicode="4" 
d="M506 875c-3 0 -6 3 -6 6v113c0 3 3 6 6 6h363c3 0 6 -3 6 -6v-369h119c3 0 6 -3 6 -6v-113c0 -3 -3 -6 -6 -6h-119v-250h119c3 0 6 -3 6 -6v-113c0 -3 -3 -6 -6 -6h-363c-3 0 -6 3 -6 6v113c0 3 3 6 6 6h119v250h-619c-3 0 -6 3 -6 6v113c0 3 3 6 6 6h119v119
c0 3 3 6 6 6h113c3 0 6 -3 6 -6v-119h375v250h-244zM381 750c-3 0 -6 3 -6 6v113c0 3 3 6 6 6h113c3 0 6 -3 6 -6v-113c0 -3 -3 -6 -6 -6h-113z" />
    <glyph glyph-name="five" unicode="5" 
d="M881 750c-3 0 -6 3 -6 6v119h-625v-250h619c3 0 6 -3 6 -6v-113c0 -3 -3 -6 -6 -6h-738c-3 0 -6 3 -6 6v488c0 3 3 6 6 6h863c3 0 6 -3 6 -6v-238c0 -3 -3 -6 -6 -6h-113zM131 250c-3 0 -6 3 -6 6v113c0 3 3 6 6 6h113c3 0 6 -3 6 -6v-113c0 -3 -3 -6 -6 -6h-113z
M881 250c-3 0 -6 3 -6 6v238c0 3 3 6 6 6h113c3 0 6 -3 6 -6v-238c0 -3 -3 -6 -6 -6h-113zM256 125c-3 0 -6 3 -6 6v113c0 3 3 6 6 6h613c3 0 6 -3 6 -6v-113c0 -3 -3 -6 -6 -6h-613z" />
    <glyph glyph-name="six" unicode="6" 
d="M256 875c-3 0 -6 3 -6 6v113c0 3 3 6 6 6h613c3 0 6 -3 6 -6v-113c0 -3 -3 -6 -6 -6h-613zM881 750c-3 0 -6 3 -6 6v113c0 3 3 6 6 6h113c3 0 6 -3 6 -6v-113c0 -3 -3 -6 -6 -6h-113zM131 250c-3 0 -6 3 -6 6v613c0 3 3 6 6 6h113c3 0 6 -3 6 -6v-244h619c3 0 6 -3 6 -6
v-113c0 -3 -3 -6 -6 -6h-619v-244c0 -3 -3 -6 -6 -6h-113zM881 250c-3 0 -6 3 -6 6v238c0 3 3 6 6 6h113c3 0 6 -3 6 -6v-238c0 -3 -3 -6 -6 -6h-113zM256 125c-3 0 -6 3 -6 6v113c0 3 3 6 6 6h613c3 0 6 -3 6 -6v-113c0 -3 -3 -6 -6 -6h-613z" />
    <glyph glyph-name="seven" unicode="7" 
d="M131 750c-3 0 -6 3 -6 6v238c0 3 3 6 6 6h863c3 0 6 -3 6 -6v-238c0 -3 -3 -6 -6 -6h-113c-3 0 -6 3 -6 6v119h-625v-119c0 -3 -3 -6 -6 -6h-113zM631 625c-3 0 -6 3 -6 6v113c0 3 3 6 6 6h238c3 0 6 -3 6 -6v-113c0 -3 -3 -6 -6 -6h-238zM381 125c-3 0 -6 3 -6 6v238
c0 3 3 6 6 6h119v244c0 3 3 6 6 6h113c3 0 6 -3 6 -6v-363c0 -3 -3 -6 -6 -6h-119v-119c0 -3 -3 -6 -6 -6h-113z" />
    <glyph glyph-name="eight" unicode="8" 
d="M256 875c-3 0 -6 3 -6 6v113c0 3 3 6 6 6h613c3 0 6 -3 6 -6v-113c0 -3 -3 -6 -6 -6h-613zM131 750c-3 0 -6 3 -6 6v113c0 3 3 6 6 6h113c3 0 6 -3 6 -6v-113c0 -3 -3 -6 -6 -6h-113zM881 750c-3 0 -6 3 -6 6v113c0 3 3 6 6 6h113c3 0 6 -3 6 -6v-113c0 -3 -3 -6 -6 -6
h-113zM256 625c-3 0 -6 3 -6 6v113c0 3 3 6 6 6h113c3 0 6 -3 6 -6v-113c0 -3 -3 -6 -6 -6h-113zM756 625c-3 0 -6 3 -6 6v113c0 3 3 6 6 6h113c3 0 6 -3 6 -6v-113c0 -3 -3 -6 -6 -6h-113zM381 500c-3 0 -6 3 -6 6v113c0 3 3 6 6 6h363c3 0 6 -3 6 -6v-113
c0 -3 -3 -6 -6 -6h-363zM756 375c-3 0 -6 3 -6 6v113c0 3 3 6 6 6h238c3 0 6 -3 6 -6v-238c0 -3 -3 -6 -6 -6h-113c-3 0 -6 3 -6 6v119h-119zM131 250c-3 0 -6 3 -6 6v238c0 3 3 6 6 6h238c3 0 6 -3 6 -6v-113c0 -3 -3 -6 -6 -6h-119v-119c0 -3 -3 -6 -6 -6h-113zM256 125
c-3 0 -6 3 -6 6v113c0 3 3 6 6 6h613c3 0 6 -3 6 -6v-113c0 -3 -3 -6 -6 -6h-613z" />
    <glyph glyph-name="nine" unicode="9" horiz-adv-x="1250" 
d="M256 875c-3 0 -6 3 -6 6v113c0 3 3 6 6 6h613c3 0 6 -3 6 -6v-113c0 -3 -3 -6 -6 -6h-613zM131 625c-3 0 -6 3 -6 6v238c0 3 3 6 6 6h113c3 0 6 -3 6 -6v-238c0 -3 -3 -6 -6 -6h-113zM256 500c-3 0 -6 3 -6 6v113c0 3 3 6 6 6h619v244c0 3 3 6 6 6h113c3 0 6 -3 6 -6
v-738c0 -3 -3 -6 -6 -6h-113c-3 0 -6 3 -6 6v369h-619z" />
    <glyph glyph-name="A" unicode="A" 
d="M381 875c-3 0 -6 3 -6 6v113c0 3 3 6 6 6h363c3 0 6 -3 6 -6v-113c0 -3 -3 -6 -6 -6h-363zM131 125c-3 0 -6 3 -6 6v113c0 3 3 6 6 6h119v619c0 3 3 6 6 6h113c3 0 6 -3 6 -6v-244h375v244c0 3 3 6 6 6h113c3 0 6 -3 6 -6v-619h119c3 0 6 -3 6 -6v-113c0 -3 -3 -6 -6 -6
h-363c-3 0 -6 3 -6 6v113c0 3 3 6 6 6h119v250h-375v-250h119c3 0 6 -3 6 -6v-113c0 -3 -3 -6 -6 -6h-363z" />
    <glyph glyph-name="B" unicode="B" 
d="M131 875c-3 0 -6 3 -6 6v113c0 3 3 6 6 6h738c3 0 6 -3 6 -6v-113c0 -3 -3 -6 -6 -6h-494v-250h369c3 0 6 -3 6 -6v-113c0 -3 -3 -6 -6 -6h-369v-250h494c3 0 6 -3 6 -6v-113c0 -3 -3 -6 -6 -6h-738c-3 0 -6 3 -6 6v113c0 3 3 6 6 6h119v625h-119zM881 750
c-3 0 -6 3 -6 6v113c0 3 3 6 6 6h113c3 0 6 -3 6 -6v-113c0 -3 -3 -6 -6 -6h-113zM756 625c-3 0 -6 3 -6 6v113c0 3 3 6 6 6h113c3 0 6 -3 6 -6v-113c0 -3 -3 -6 -6 -6h-113zM756 375c-3 0 -6 3 -6 6v113c0 3 3 6 6 6h113c3 0 6 -3 6 -6v-113c0 -3 -3 -6 -6 -6h-113z
M881 250c-3 0 -6 3 -6 6v113c0 3 3 6 6 6h113c3 0 6 -3 6 -6v-113c0 -3 -3 -6 -6 -6h-113z" />
    <glyph glyph-name="C" unicode="C" 
d="M381 875c-3 0 -6 3 -6 6v113c0 3 3 6 6 6h363c3 0 6 -3 6 -6v-113c0 -3 -3 -6 -6 -6h-363zM256 750c-3 0 -6 3 -6 6v113c0 3 3 6 6 6h113c3 0 6 -3 6 -6v-113c0 -3 -3 -6 -6 -6h-113zM756 750c-3 0 -6 3 -6 6v113c0 3 3 6 6 6h119v119c0 3 3 6 6 6h113c3 0 6 -3 6 -6
v-363c0 -3 -3 -6 -6 -6h-113c-3 0 -6 3 -6 6v119h-119zM131 375c-3 0 -6 3 -6 6v363c0 3 3 6 6 6h113c3 0 6 -3 6 -6v-363c0 -3 -3 -6 -6 -6h-113zM256 250c-3 0 -6 3 -6 6v113c0 3 3 6 6 6h113c3 0 6 -3 6 -6v-113c0 -3 -3 -6 -6 -6h-113zM756 250c-3 0 -6 3 -6 6v113
c0 3 3 6 6 6h119v119c0 3 3 6 6 6h113c3 0 6 -3 6 -6v-363c0 -3 -3 -6 -6 -6h-113c-3 0 -6 3 -6 6v119h-119zM381 125c-3 0 -6 3 -6 6v113c0 3 3 6 6 6h363c3 0 6 -3 6 -6v-113c0 -3 -3 -6 -6 -6h-363z" />
    <glyph glyph-name="D" unicode="D" 
d="M131 875c-3 0 -6 3 -6 6v113c0 3 3 6 6 6h738c3 0 6 -3 6 -6v-113c0 -3 -3 -6 -6 -6h-494v-625h494c3 0 6 -3 6 -6v-113c0 -3 -3 -6 -6 -6h-738c-3 0 -6 3 -6 6v113c0 3 3 6 6 6h119v625h-119zM881 250c-3 0 -6 3 -6 6v613c0 3 3 6 6 6h113c3 0 6 -3 6 -6v-613
c0 -3 -3 -6 -6 -6h-113z" />
    <glyph glyph-name="E" unicode="E" 
d="M131 875c-3 0 -6 3 -6 6v113c0 3 3 6 6 6h863c3 0 6 -3 6 -6v-238c0 -3 -3 -6 -6 -6h-113c-3 0 -6 3 -6 6v119h-500v-250h250v119c0 3 3 6 6 6h113c3 0 6 -3 6 -6v-363c0 -3 -3 -6 -6 -6h-113c-3 0 -6 3 -6 6v119h-250v-250h500v119c0 3 3 6 6 6h113c3 0 6 -3 6 -6v-238
c0 -3 -3 -6 -6 -6h-863c-3 0 -6 3 -6 6v113c0 3 3 6 6 6h119v625h-119z" />
    <glyph glyph-name="F" unicode="F" 
d="M131 875c-3 0 -6 3 -6 6v113c0 3 3 6 6 6h863c3 0 6 -3 6 -6v-238c0 -3 -3 -6 -6 -6h-113c-3 0 -6 3 -6 6v119h-500v-250h250v119c0 3 3 6 6 6h113c3 0 6 -3 6 -6v-363c0 -3 -3 -6 -6 -6h-113c-3 0 -6 3 -6 6v119h-250v-250h119c3 0 6 -3 6 -6v-113c0 -3 -3 -6 -6 -6
h-363c-3 0 -6 3 -6 6v113c0 3 3 6 6 6h119v625h-119z" />
    <glyph glyph-name="G" unicode="G" 
d="M881 875c-3 0 -6 3 -6 6v113c0 3 3 6 6 6h113c3 0 6 -3 6 -6v-113c0 -3 -3 -6 -6 -6h-113zM756 750c-3 0 -6 3 -6 6v113c0 3 3 6 6 6h113c3 0 6 -3 6 -6v-113c0 -3 -3 -6 -6 -6h-113zM631 500c-3 0 -6 3 -6 6v113c0 3 3 6 6 6h363c3 0 6 -3 6 -6v-488c0 -3 -3 -6 -6 -6
h-738c-3 0 -6 3 -6 6v113c0 3 3 6 6 6h619v250h-244zM131 250c-3 0 -6 3 -6 6v738c0 3 3 6 6 6h613c3 0 6 -3 6 -6v-113c0 -3 -3 -6 -6 -6h-494v-619c0 -3 -3 -6 -6 -6h-113z" />
    <glyph glyph-name="H" unicode="H" horiz-adv-x="1250" 
d="M131 875c-3 0 -6 3 -6 6v113c0 3 3 6 6 6h363c3 0 6 -3 6 -6v-113c0 -3 -3 -6 -6 -6h-119v-250h375v250h-119c-3 0 -6 3 -6 6v113c0 3 3 6 6 6h363c3 0 6 -3 6 -6v-113c0 -3 -3 -6 -6 -6h-119v-625h119c3 0 6 -3 6 -6v-113c0 -3 -3 -6 -6 -6h-363c-3 0 -6 3 -6 6v113
c0 3 3 6 6 6h119v250h-375v-250h119c3 0 6 -3 6 -6v-113c0 -3 -3 -6 -6 -6h-363c-3 0 -6 3 -6 6v113c0 3 3 6 6 6h119v625h-119z" />
    <glyph glyph-name="I" unicode="I" 
d="M131 875c-3 0 -6 3 -6 6v113c0 3 3 6 6 6h863c3 0 6 -3 6 -6v-113c0 -3 -3 -6 -6 -6h-369v-625h369c3 0 6 -3 6 -6v-113c0 -3 -3 -6 -6 -6h-863c-3 0 -6 3 -6 6v113c0 3 3 6 6 6h369v625h-369z" />
    <glyph glyph-name="J" unicode="J" 
d="M631 875c-3 0 -6 3 -6 6v113c0 3 3 6 6 6h363c3 0 6 -3 6 -6v-113c0 -3 -3 -6 -6 -6h-119v-619c0 -3 -3 -6 -6 -6h-113c-3 0 -6 3 -6 6v619h-119zM131 500c-3 0 -6 3 -6 6v113c0 3 3 6 6 6h363c3 0 6 -3 6 -6v-113c0 -3 -3 -6 -6 -6h-119v-244c0 -3 -3 -6 -6 -6h-113
c-3 0 -6 3 -6 6v244h-119zM381 125c-3 0 -6 3 -6 6v113c0 3 3 6 6 6h363c3 0 6 -3 6 -6v-113c0 -3 -3 -6 -6 -6h-363z" />
    <glyph glyph-name="K" unicode="K" horiz-adv-x="1250" 
d="M131 875c-3 0 -6 3 -6 6v113c0 3 3 6 6 6h363c3 0 6 -3 6 -6v-113c0 -3 -3 -6 -6 -6h-119v-250h244c3 0 6 -3 6 -6v-113c0 -3 -3 -6 -6 -6h-244v-250h119c3 0 6 -3 6 -6v-113c0 -3 -3 -6 -6 -6h-363c-3 0 -6 3 -6 6v113c0 3 3 6 6 6h119v625h-119zM756 750
c-3 0 -6 3 -6 6v238c0 3 3 6 6 6h238c3 0 6 -3 6 -6v-113c0 -3 -3 -6 -6 -6h-119v-119c0 -3 -3 -6 -6 -6h-113zM631 625c-3 0 -6 3 -6 6v113c0 3 3 6 6 6h113c3 0 6 -3 6 -6v-113c0 -3 -3 -6 -6 -6h-113zM631 375c-3 0 -6 3 -6 6v113c0 3 3 6 6 6h113c3 0 6 -3 6 -6v-113
c0 -3 -3 -6 -6 -6h-113zM756 125c-3 0 -6 3 -6 6v238c0 3 3 6 6 6h113c3 0 6 -3 6 -6v-119h119c3 0 6 -3 6 -6v-113c0 -3 -3 -6 -6 -6h-238z" />
    <glyph glyph-name="L" unicode="L" 
d="M131 875c-3 0 -6 3 -6 6v113c0 3 3 6 6 6h363c3 0 6 -3 6 -6v-113c0 -3 -3 -6 -6 -6h-119v-625h500v119c0 3 3 6 6 6h113c3 0 6 -3 6 -6v-238c0 -3 -3 -6 -6 -6h-863c-3 0 -6 3 -6 6v113c0 3 3 6 6 6h119v625h-119z" />
    <glyph glyph-name="M" unicode="M" horiz-adv-x="1250" 
d="M131 875c-3 0 -6 3 -6 6v113c0 3 3 6 6 6h238c3 0 6 -3 6 -6v-119h119c3 0 6 -3 6 -6v-113c0 -3 -3 -6 -6 -6h-119v-500h119c3 0 6 -3 6 -6v-113c0 -3 -3 -6 -6 -6h-363c-3 0 -6 3 -6 6v113c0 3 3 6 6 6h119v625h-119zM631 750c-3 0 -6 3 -6 6v113c0 3 3 6 6 6h119v119
c0 3 3 6 6 6h238c3 0 6 -3 6 -6v-113c0 -3 -3 -6 -6 -6h-119v-625h119c3 0 6 -3 6 -6v-113c0 -3 -3 -6 -6 -6h-363c-3 0 -6 3 -6 6v113c0 3 3 6 6 6h119v500h-119zM506 500c-3 0 -6 3 -6 6v238c0 3 3 6 6 6h113c3 0 6 -3 6 -6v-238c0 -3 -3 -6 -6 -6h-113z" />
    <glyph glyph-name="N" unicode="N" 
d="M131 875c-3 0 -6 3 -6 6v113c0 3 3 6 6 6h363c3 0 6 -3 6 -6v-113c0 -3 -3 -6 -6 -6h-119v-125h119c3 0 6 -3 6 -6v-113c0 -3 -3 -6 -6 -6h-119v-375h119c3 0 6 -3 6 -6v-113c0 -3 -3 -6 -6 -6h-363c-3 0 -6 3 -6 6v113c0 3 3 6 6 6h119v625h-119zM631 875
c-3 0 -6 3 -6 6v113c0 3 3 6 6 6h363c3 0 6 -3 6 -6v-113c0 -3 -3 -6 -6 -6h-119v-625h119c3 0 6 -3 6 -6v-113c0 -3 -3 -6 -6 -6h-363c-3 0 -6 3 -6 6v113c0 3 3 6 6 6h119v125h-119c-3 0 -6 3 -6 6v113c0 3 3 6 6 6h119v375h-119zM506 500c-3 0 -6 3 -6 6v113c0 3 3 6 6 6
h113c3 0 6 -3 6 -6v-113c0 -3 -3 -6 -6 -6h-113z" />
    <glyph glyph-name="O" unicode="O" 
d="M256 875c-3 0 -6 3 -6 6v113c0 3 3 6 6 6h613c3 0 6 -3 6 -6v-113c0 -3 -3 -6 -6 -6h-613zM131 250c-3 0 -6 3 -6 6v613c0 3 3 6 6 6h113c3 0 6 -3 6 -6v-613c0 -3 -3 -6 -6 -6h-113zM881 250c-3 0 -6 3 -6 6v613c0 3 3 6 6 6h113c3 0 6 -3 6 -6v-613c0 -3 -3 -6 -6 -6
h-113zM256 125c-3 0 -6 3 -6 6v113c0 3 3 6 6 6h613c3 0 6 -3 6 -6v-113c0 -3 -3 -6 -6 -6h-613z" />
    <glyph glyph-name="P" unicode="P" 
d="M131 875c-3 0 -6 3 -6 6v113c0 3 3 6 6 6h738c3 0 6 -3 6 -6v-113c0 -3 -3 -6 -6 -6h-494v-250h494c3 0 6 -3 6 -6v-113c0 -3 -3 -6 -6 -6h-494v-250h119c3 0 6 -3 6 -6v-113c0 -3 -3 -6 -6 -6h-363c-3 0 -6 3 -6 6v113c0 3 3 6 6 6h119v625h-119zM881 625
c-3 0 -6 3 -6 6v238c0 3 3 6 6 6h113c3 0 6 -3 6 -6v-238c0 -3 -3 -6 -6 -6h-113z" />
    <glyph glyph-name="Q" unicode="Q" horiz-adv-x="1250" 
d="M256 875c-3 0 -6 3 -6 6v113c0 3 3 6 6 6h613c3 0 6 -3 6 -6v-113c0 -3 -3 -6 -6 -6h-613zM631 375c-3 0 -6 3 -6 6v113c0 3 3 6 6 6h113c3 0 6 -3 6 -6v-113c0 -3 -3 -6 -6 -6h-113zM881 375c-3 0 -6 3 -6 6v488c0 3 3 6 6 6h113c3 0 6 -3 6 -6v-488c0 -3 -3 -6 -6 -6
h-113zM131 250c-3 0 -6 3 -6 6v613c0 3 3 6 6 6h113c3 0 6 -3 6 -6v-613c0 -3 -3 -6 -6 -6h-113zM756 250c-3 0 -6 3 -6 6v113c0 3 3 6 6 6h113c3 0 6 -3 6 -6v-113c0 -3 -3 -6 -6 -6h-113zM256 125c-3 0 -6 3 -6 6v113c0 3 3 6 6 6h488c3 0 6 -3 6 -6v-113
c0 -3 -3 -6 -6 -6h-488zM881 125c-3 0 -6 3 -6 6v113c0 3 3 6 6 6h113c3 0 6 -3 6 -6v-113c0 -3 -3 -6 -6 -6h-113z" />
    <glyph glyph-name="R" unicode="R" horiz-adv-x="1250" 
d="M131 875c-3 0 -6 3 -6 6v113c0 3 3 6 6 6h738c3 0 6 -3 6 -6v-113c0 -3 -3 -6 -6 -6h-494v-250h494c3 0 6 -3 6 -6v-113c0 -3 -3 -6 -6 -6h-244v-119c0 -3 -3 -6 -6 -6h-113c-3 0 -6 3 -6 6v119h-125v-250h119c3 0 6 -3 6 -6v-113c0 -3 -3 -6 -6 -6h-363c-3 0 -6 3 -6 6
v113c0 3 3 6 6 6h119v625h-119zM881 625c-3 0 -6 3 -6 6v238c0 3 3 6 6 6h113c3 0 6 -3 6 -6v-238c0 -3 -3 -6 -6 -6h-113zM631 250c-3 0 -6 3 -6 6v113c0 3 3 6 6 6h113c3 0 6 -3 6 -6v-113c0 -3 -3 -6 -6 -6h-113zM756 125c-3 0 -6 3 -6 6v113c0 3 3 6 6 6h238
c3 0 6 -3 6 -6v-113c0 -3 -3 -6 -6 -6h-238z" />
    <glyph glyph-name="S" unicode="S" 
d="M131 750c-3 0 -6 3 -6 6v113c0 3 3 6 6 6h119v119c0 3 3 6 6 6h613c3 0 6 -3 6 -6v-119h119c3 0 6 -3 6 -6v-238c0 -3 -3 -6 -6 -6h-113c-3 0 -6 3 -6 6v119h-119c-3 0 -6 3 -6 6v119h-375v-119c0 -3 -3 -6 -6 -6h-238zM381 625c-3 0 -6 3 -6 6v113c0 3 3 6 6 6h113
c3 0 6 -3 6 -6v-113c0 -3 -3 -6 -6 -6h-113zM506 500c-3 0 -6 3 -6 6v113c0 3 3 6 6 6h113c3 0 6 -3 6 -6v-113c0 -3 -3 -6 -6 -6h-113zM6 250c-3 0 -6 3 -6 6v113c0 3 3 6 6 6h119v119c0 3 3 6 6 6h113c3 0 6 -3 6 -6v-238c0 -3 -3 -6 -6 -6h-238zM256 125c-3 0 -6 3 -6 6
v113c0 3 3 6 6 6h369v244c0 3 3 6 6 6h113c3 0 6 -3 6 -6v-119h119c3 0 6 -3 6 -6v-238c0 -3 -3 -6 -6 -6h-613z" />
    <glyph glyph-name="T" unicode="T" 
d="M131 750c-3 0 -6 3 -6 6v238c0 3 3 6 6 6h863c3 0 6 -3 6 -6v-238c0 -3 -3 -6 -6 -6h-113c-3 0 -6 3 -6 6v119h-250v-625h119c3 0 6 -3 6 -6v-113c0 -3 -3 -6 -6 -6h-363c-3 0 -6 3 -6 6v113c0 3 3 6 6 6h119v625h-250v-119c0 -3 -3 -6 -6 -6h-113z" />
    <glyph glyph-name="U" unicode="U" horiz-adv-x="1250" 
d="M131 875c-3 0 -6 3 -6 6v113c0 3 3 6 6 6h363c3 0 6 -3 6 -6v-113c0 -3 -3 -6 -6 -6h-119v-619c0 -3 -3 -6 -6 -6h-113c-3 0 -6 3 -6 6v619h-119zM631 875c-3 0 -6 3 -6 6v113c0 3 3 6 6 6h363c3 0 6 -3 6 -6v-113c0 -3 -3 -6 -6 -6h-119v-619c0 -3 -3 -6 -6 -6h-113
c-3 0 -6 3 -6 6v619h-119zM381 125c-3 0 -6 3 -6 6v113c0 3 3 6 6 6h363c3 0 6 -3 6 -6v-113c0 -3 -3 -6 -6 -6h-363z" />
    <glyph glyph-name="V" unicode="V" horiz-adv-x="1250" 
d="M131 875c-3 0 -6 3 -6 6v113c0 3 3 6 6 6h363c3 0 6 -3 6 -6v-113c0 -3 -3 -6 -6 -6h-119v-494c0 -3 -3 -6 -6 -6h-113c-3 0 -6 3 -6 6v494h-119zM631 875c-3 0 -6 3 -6 6v113c0 3 3 6 6 6h363c3 0 6 -3 6 -6v-113c0 -3 -3 -6 -6 -6h-119v-494c0 -3 -3 -6 -6 -6h-113
c-3 0 -6 3 -6 6v494h-119zM381 250c-3 0 -6 3 -6 6v113c0 3 3 6 6 6h113c3 0 6 -3 6 -6v-113c0 -3 -3 -6 -6 -6h-113zM631 250c-3 0 -6 3 -6 6v113c0 3 3 6 6 6h113c3 0 6 -3 6 -6v-113c0 -3 -3 -6 -6 -6h-113zM506 125c-3 0 -6 3 -6 6v113c0 3 3 6 6 6h113c3 0 6 -3 6 -6
v-113c0 -3 -3 -6 -6 -6h-113z" />
    <glyph glyph-name="W" unicode="W" horiz-adv-x="1250" 
d="M131 875c-3 0 -6 3 -6 6v113c0 3 3 6 6 6h363c3 0 6 -3 6 -6v-113c0 -3 -3 -6 -6 -6h-119v-494c0 -3 -3 -6 -6 -6h-113c-3 0 -6 3 -6 6v494h-119zM631 875c-3 0 -6 3 -6 6v113c0 3 3 6 6 6h363c3 0 6 -3 6 -6v-113c0 -3 -3 -6 -6 -6h-119v-494c0 -3 -3 -6 -6 -6h-113
c-3 0 -6 3 -6 6v494h-119zM506 375c-3 0 -6 3 -6 6v238c0 3 3 6 6 6h113c3 0 6 -3 6 -6v-238c0 -3 -3 -6 -6 -6h-113zM381 125c-3 0 -6 3 -6 6v238c0 3 3 6 6 6h113c3 0 6 -3 6 -6v-238c0 -3 -3 -6 -6 -6h-113zM631 125c-3 0 -6 3 -6 6v238c0 3 3 6 6 6h113c3 0 6 -3 6 -6
v-238c0 -3 -3 -6 -6 -6h-113z" />
    <glyph glyph-name="X" unicode="X" horiz-adv-x="1250" 
d="M131 875c-3 0 -6 3 -6 6v113c0 3 3 6 6 6h363c3 0 6 -3 6 -6v-113c0 -3 -3 -6 -6 -6h-119v-119c0 -3 -3 -6 -6 -6h-113c-3 0 -6 3 -6 6v119h-119zM631 875c-3 0 -6 3 -6 6v113c0 3 3 6 6 6h363c3 0 6 -3 6 -6v-113c0 -3 -3 -6 -6 -6h-119v-119c0 -3 -3 -6 -6 -6h-113
c-3 0 -6 3 -6 6v119h-119zM381 625c-3 0 -6 3 -6 6v113c0 3 3 6 6 6h113c3 0 6 -3 6 -6v-113c0 -3 -3 -6 -6 -6h-113zM631 625c-3 0 -6 3 -6 6v113c0 3 3 6 6 6h113c3 0 6 -3 6 -6v-113c0 -3 -3 -6 -6 -6h-113zM506 500c-3 0 -6 3 -6 6v113c0 3 3 6 6 6h113c3 0 6 -3 6 -6
v-113c0 -3 -3 -6 -6 -6h-113zM381 375c-3 0 -6 3 -6 6v113c0 3 3 6 6 6h113c3 0 6 -3 6 -6v-113c0 -3 -3 -6 -6 -6h-113zM631 375c-3 0 -6 3 -6 6v113c0 3 3 6 6 6h113c3 0 6 -3 6 -6v-113c0 -3 -3 -6 -6 -6h-113zM131 125c-3 0 -6 3 -6 6v113c0 3 3 6 6 6h119v119
c0 3 3 6 6 6h113c3 0 6 -3 6 -6v-119h119c3 0 6 -3 6 -6v-113c0 -3 -3 -6 -6 -6h-363zM631 125c-3 0 -6 3 -6 6v113c0 3 3 6 6 6h119v119c0 3 3 6 6 6h113c3 0 6 -3 6 -6v-119h119c3 0 6 -3 6 -6v-113c0 -3 -3 -6 -6 -6h-363z" />
    <glyph glyph-name="Y" unicode="Y" horiz-adv-x="1250" 
d="M131 875c-3 0 -6 3 -6 6v113c0 3 3 6 6 6h363c3 0 6 -3 6 -6v-113c0 -3 -3 -6 -6 -6h-119v-244c0 -3 -3 -6 -6 -6h-113c-3 0 -6 3 -6 6v244h-119zM631 875c-3 0 -6 3 -6 6v113c0 3 3 6 6 6h363c3 0 6 -3 6 -6v-113c0 -3 -3 -6 -6 -6h-119v-244c0 -3 -3 -6 -6 -6h-113
c-3 0 -6 3 -6 6v244h-119zM381 500c-3 0 -6 3 -6 6v113c0 3 3 6 6 6h113c3 0 6 -3 6 -6v-113c0 -3 -3 -6 -6 -6h-113zM631 500c-3 0 -6 3 -6 6v113c0 3 3 6 6 6h113c3 0 6 -3 6 -6v-113c0 -3 -3 -6 -6 -6h-113zM381 125c-3 0 -6 3 -6 6v113c0 3 3 6 6 6h119v244c0 3 3 6 6 6
h113c3 0 6 -3 6 -6v-244h119c3 0 6 -3 6 -6v-113c0 -3 -3 -6 -6 -6h-363z" />
    <glyph glyph-name="Z" unicode="Z" horiz-adv-x="1250" 
d="M131 750c-3 0 -6 3 -6 6v238c0 3 3 6 6 6h863c3 0 6 -3 6 -6v-113c0 -3 -3 -6 -6 -6h-119v-119c0 -3 -3 -6 -6 -6h-113c-3 0 -6 3 -6 6v119h-500v-119c0 -3 -3 -6 -6 -6h-113zM631 625c-3 0 -6 3 -6 6v113c0 3 3 6 6 6h113c3 0 6 -3 6 -6v-113c0 -3 -3 -6 -6 -6h-113z
M506 500c-3 0 -6 3 -6 6v113c0 3 3 6 6 6h113c3 0 6 -3 6 -6v-113c0 -3 -3 -6 -6 -6h-113zM381 375c-3 0 -6 3 -6 6v113c0 3 3 6 6 6h113c3 0 6 -3 6 -6v-113c0 -3 -3 -6 -6 -6h-113zM131 125c-3 0 -6 3 -6 6v113c0 3 3 6 6 6h119v119c0 3 3 6 6 6h113c3 0 6 -3 6 -6v-119
h500v119c0 3 3 6 6 6h113c3 0 6 -3 6 -6v-238c0 -3 -3 -6 -6 -6h-863z" />
    <glyph glyph-name="a" unicode="a" 
d="M381 875c-3 0 -6 3 -6 6v113c0 3 3 6 6 6h363c3 0 6 -3 6 -6v-113c0 -3 -3 -6 -6 -6h-363zM131 125c-3 0 -6 3 -6 6v113c0 3 3 6 6 6h119v619c0 3 3 6 6 6h113c3 0 6 -3 6 -6v-244h375v244c0 3 3 6 6 6h113c3 0 6 -3 6 -6v-619h119c3 0 6 -3 6 -6v-113c0 -3 -3 -6 -6 -6
h-363c-3 0 -6 3 -6 6v113c0 3 3 6 6 6h119v250h-375v-250h119c3 0 6 -3 6 -6v-113c0 -3 -3 -6 -6 -6h-363z" />
    <glyph glyph-name="b" unicode="b" 
d="M131 875c-3 0 -6 3 -6 6v113c0 3 3 6 6 6h738c3 0 6 -3 6 -6v-113c0 -3 -3 -6 -6 -6h-494v-250h369c3 0 6 -3 6 -6v-113c0 -3 -3 -6 -6 -6h-369v-250h494c3 0 6 -3 6 -6v-113c0 -3 -3 -6 -6 -6h-738c-3 0 -6 3 -6 6v113c0 3 3 6 6 6h119v625h-119zM881 750
c-3 0 -6 3 -6 6v113c0 3 3 6 6 6h113c3 0 6 -3 6 -6v-113c0 -3 -3 -6 -6 -6h-113zM756 625c-3 0 -6 3 -6 6v113c0 3 3 6 6 6h113c3 0 6 -3 6 -6v-113c0 -3 -3 -6 -6 -6h-113zM756 375c-3 0 -6 3 -6 6v113c0 3 3 6 6 6h113c3 0 6 -3 6 -6v-113c0 -3 -3 -6 -6 -6h-113z
M881 250c-3 0 -6 3 -6 6v113c0 3 3 6 6 6h113c3 0 6 -3 6 -6v-113c0 -3 -3 -6 -6 -6h-113z" />
    <glyph glyph-name="c" unicode="c" 
d="M381 875c-3 0 -6 3 -6 6v113c0 3 3 6 6 6h363c3 0 6 -3 6 -6v-113c0 -3 -3 -6 -6 -6h-363zM256 750c-3 0 -6 3 -6 6v113c0 3 3 6 6 6h113c3 0 6 -3 6 -6v-113c0 -3 -3 -6 -6 -6h-113zM756 750c-3 0 -6 3 -6 6v113c0 3 3 6 6 6h119v119c0 3 3 6 6 6h113c3 0 6 -3 6 -6
v-363c0 -3 -3 -6 -6 -6h-113c-3 0 -6 3 -6 6v119h-119zM131 375c-3 0 -6 3 -6 6v363c0 3 3 6 6 6h113c3 0 6 -3 6 -6v-363c0 -3 -3 -6 -6 -6h-113zM256 250c-3 0 -6 3 -6 6v113c0 3 3 6 6 6h113c3 0 6 -3 6 -6v-113c0 -3 -3 -6 -6 -6h-113zM756 250c-3 0 -6 3 -6 6v113
c0 3 3 6 6 6h119v119c0 3 3 6 6 6h113c3 0 6 -3 6 -6v-363c0 -3 -3 -6 -6 -6h-113c-3 0 -6 3 -6 6v119h-119zM381 125c-3 0 -6 3 -6 6v113c0 3 3 6 6 6h363c3 0 6 -3 6 -6v-113c0 -3 -3 -6 -6 -6h-363z" />
    <glyph glyph-name="d" unicode="d" 
d="M131 875c-3 0 -6 3 -6 6v113c0 3 3 6 6 6h738c3 0 6 -3 6 -6v-113c0 -3 -3 -6 -6 -6h-494v-625h494c3 0 6 -3 6 -6v-113c0 -3 -3 -6 -6 -6h-738c-3 0 -6 3 -6 6v113c0 3 3 6 6 6h119v625h-119zM881 250c-3 0 -6 3 -6 6v613c0 3 3 6 6 6h113c3 0 6 -3 6 -6v-613
c0 -3 -3 -6 -6 -6h-113z" />
    <glyph glyph-name="e" unicode="e" 
d="M131 875c-3 0 -6 3 -6 6v113c0 3 3 6 6 6h863c3 0 6 -3 6 -6v-238c0 -3 -3 -6 -6 -6h-113c-3 0 -6 3 -6 6v119h-500v-250h250v119c0 3 3 6 6 6h113c3 0 6 -3 6 -6v-363c0 -3 -3 -6 -6 -6h-113c-3 0 -6 3 -6 6v119h-250v-250h500v119c0 3 3 6 6 6h113c3 0 6 -3 6 -6v-238
c0 -3 -3 -6 -6 -6h-863c-3 0 -6 3 -6 6v113c0 3 3 6 6 6h119v625h-119z" />
    <glyph glyph-name="f" unicode="f" 
d="M131 875c-3 0 -6 3 -6 6v113c0 3 3 6 6 6h863c3 0 6 -3 6 -6v-238c0 -3 -3 -6 -6 -6h-113c-3 0 -6 3 -6 6v119h-500v-250h250v119c0 3 3 6 6 6h113c3 0 6 -3 6 -6v-363c0 -3 -3 -6 -6 -6h-113c-3 0 -6 3 -6 6v119h-250v-250h119c3 0 6 -3 6 -6v-113c0 -3 -3 -6 -6 -6
h-363c-3 0 -6 3 -6 6v113c0 3 3 6 6 6h119v625h-119z" />
    <glyph glyph-name="g" unicode="g" 
d="M881 875c-3 0 -6 3 -6 6v113c0 3 3 6 6 6h113c3 0 6 -3 6 -6v-113c0 -3 -3 -6 -6 -6h-113zM756 750c-3 0 -6 3 -6 6v113c0 3 3 6 6 6h113c3 0 6 -3 6 -6v-113c0 -3 -3 -6 -6 -6h-113zM631 500c-3 0 -6 3 -6 6v113c0 3 3 6 6 6h363c3 0 6 -3 6 -6v-488c0 -3 -3 -6 -6 -6
h-738c-3 0 -6 3 -6 6v113c0 3 3 6 6 6h619v250h-244zM131 250c-3 0 -6 3 -6 6v738c0 3 3 6 6 6h613c3 0 6 -3 6 -6v-113c0 -3 -3 -6 -6 -6h-494v-619c0 -3 -3 -6 -6 -6h-113z" />
    <glyph glyph-name="h" unicode="h" horiz-adv-x="1250" 
d="M131 875c-3 0 -6 3 -6 6v113c0 3 3 6 6 6h363c3 0 6 -3 6 -6v-113c0 -3 -3 -6 -6 -6h-119v-250h375v250h-119c-3 0 -6 3 -6 6v113c0 3 3 6 6 6h363c3 0 6 -3 6 -6v-113c0 -3 -3 -6 -6 -6h-119v-625h119c3 0 6 -3 6 -6v-113c0 -3 -3 -6 -6 -6h-363c-3 0 -6 3 -6 6v113
c0 3 3 6 6 6h119v250h-375v-250h119c3 0 6 -3 6 -6v-113c0 -3 -3 -6 -6 -6h-363c-3 0 -6 3 -6 6v113c0 3 3 6 6 6h119v625h-119z" />
    <glyph glyph-name="i" unicode="i" 
d="M131 875c-3 0 -6 3 -6 6v113c0 3 3 6 6 6h863c3 0 6 -3 6 -6v-113c0 -3 -3 -6 -6 -6h-369v-625h369c3 0 6 -3 6 -6v-113c0 -3 -3 -6 -6 -6h-863c-3 0 -6 3 -6 6v113c0 3 3 6 6 6h369v625h-369z" />
    <glyph glyph-name="j" unicode="j" 
d="M631 875c-3 0 -6 3 -6 6v113c0 3 3 6 6 6h363c3 0 6 -3 6 -6v-113c0 -3 -3 -6 -6 -6h-119v-619c0 -3 -3 -6 -6 -6h-113c-3 0 -6 3 -6 6v619h-119zM131 500c-3 0 -6 3 -6 6v113c0 3 3 6 6 6h363c3 0 6 -3 6 -6v-113c0 -3 -3 -6 -6 -6h-119v-244c0 -3 -3 -6 -6 -6h-113
c-3 0 -6 3 -6 6v244h-119zM381 125c-3 0 -6 3 -6 6v113c0 3 3 6 6 6h363c3 0 6 -3 6 -6v-113c0 -3 -3 -6 -6 -6h-363z" />
    <glyph glyph-name="k" unicode="k" horiz-adv-x="1250" 
d="M131 875c-3 0 -6 3 -6 6v113c0 3 3 6 6 6h363c3 0 6 -3 6 -6v-113c0 -3 -3 -6 -6 -6h-119v-250h244c3 0 6 -3 6 -6v-113c0 -3 -3 -6 -6 -6h-244v-250h119c3 0 6 -3 6 -6v-113c0 -3 -3 -6 -6 -6h-363c-3 0 -6 3 -6 6v113c0 3 3 6 6 6h119v625h-119zM756 750
c-3 0 -6 3 -6 6v238c0 3 3 6 6 6h238c3 0 6 -3 6 -6v-113c0 -3 -3 -6 -6 -6h-119v-119c0 -3 -3 -6 -6 -6h-113zM631 625c-3 0 -6 3 -6 6v113c0 3 3 6 6 6h113c3 0 6 -3 6 -6v-113c0 -3 -3 -6 -6 -6h-113zM631 375c-3 0 -6 3 -6 6v113c0 3 3 6 6 6h113c3 0 6 -3 6 -6v-113
c0 -3 -3 -6 -6 -6h-113zM756 125c-3 0 -6 3 -6 6v238c0 3 3 6 6 6h113c3 0 6 -3 6 -6v-119h119c3 0 6 -3 6 -6v-113c0 -3 -3 -6 -6 -6h-238z" />
    <glyph glyph-name="l" unicode="l" 
d="M131 875c-3 0 -6 3 -6 6v113c0 3 3 6 6 6h363c3 0 6 -3 6 -6v-113c0 -3 -3 -6 -6 -6h-119v-625h500v119c0 3 3 6 6 6h113c3 0 6 -3 6 -6v-238c0 -3 -3 -6 -6 -6h-863c-3 0 -6 3 -6 6v113c0 3 3 6 6 6h119v625h-119z" />
    <glyph glyph-name="m" unicode="m" horiz-adv-x="1250" 
d="M131 875c-3 0 -6 3 -6 6v113c0 3 3 6 6 6h238c3 0 6 -3 6 -6v-119h119c3 0 6 -3 6 -6v-113c0 -3 -3 -6 -6 -6h-119v-500h119c3 0 6 -3 6 -6v-113c0 -3 -3 -6 -6 -6h-363c-3 0 -6 3 -6 6v113c0 3 3 6 6 6h119v625h-119zM631 750c-3 0 -6 3 -6 6v113c0 3 3 6 6 6h119v119
c0 3 3 6 6 6h238c3 0 6 -3 6 -6v-113c0 -3 -3 -6 -6 -6h-119v-625h119c3 0 6 -3 6 -6v-113c0 -3 -3 -6 -6 -6h-363c-3 0 -6 3 -6 6v113c0 3 3 6 6 6h119v500h-119zM506 500c-3 0 -6 3 -6 6v238c0 3 3 6 6 6h113c3 0 6 -3 6 -6v-238c0 -3 -3 -6 -6 -6h-113z" />
    <glyph glyph-name="n" unicode="n" 
d="M131 875c-3 0 -6 3 -6 6v113c0 3 3 6 6 6h363c3 0 6 -3 6 -6v-113c0 -3 -3 -6 -6 -6h-119v-125h119c3 0 6 -3 6 -6v-113c0 -3 -3 -6 -6 -6h-119v-375h119c3 0 6 -3 6 -6v-113c0 -3 -3 -6 -6 -6h-363c-3 0 -6 3 -6 6v113c0 3 3 6 6 6h119v625h-119zM631 875
c-3 0 -6 3 -6 6v113c0 3 3 6 6 6h363c3 0 6 -3 6 -6v-113c0 -3 -3 -6 -6 -6h-119v-625h119c3 0 6 -3 6 -6v-113c0 -3 -3 -6 -6 -6h-363c-3 0 -6 3 -6 6v113c0 3 3 6 6 6h119v125h-119c-3 0 -6 3 -6 6v113c0 3 3 6 6 6h119v375h-119zM506 500c-3 0 -6 3 -6 6v113c0 3 3 6 6 6
h113c3 0 6 -3 6 -6v-113c0 -3 -3 -6 -6 -6h-113z" />
    <glyph glyph-name="o" unicode="o" 
d="M256 875c-3 0 -6 3 -6 6v113c0 3 3 6 6 6h613c3 0 6 -3 6 -6v-113c0 -3 -3 -6 -6 -6h-613zM131 250c-3 0 -6 3 -6 6v613c0 3 3 6 6 6h113c3 0 6 -3 6 -6v-613c0 -3 -3 -6 -6 -6h-113zM881 250c-3 0 -6 3 -6 6v613c0 3 3 6 6 6h113c3 0 6 -3 6 -6v-613c0 -3 -3 -6 -6 -6
h-113zM256 125c-3 0 -6 3 -6 6v113c0 3 3 6 6 6h613c3 0 6 -3 6 -6v-113c0 -3 -3 -6 -6 -6h-613z" />
    <glyph glyph-name="p" unicode="p" 
d="M131 875c-3 0 -6 3 -6 6v113c0 3 3 6 6 6h738c3 0 6 -3 6 -6v-113c0 -3 -3 -6 -6 -6h-494v-250h494c3 0 6 -3 6 -6v-113c0 -3 -3 -6 -6 -6h-494v-250h119c3 0 6 -3 6 -6v-113c0 -3 -3 -6 -6 -6h-363c-3 0 -6 3 -6 6v113c0 3 3 6 6 6h119v625h-119zM881 625
c-3 0 -6 3 -6 6v238c0 3 3 6 6 6h113c3 0 6 -3 6 -6v-238c0 -3 -3 -6 -6 -6h-113z" />
    <glyph glyph-name="q" unicode="q" horiz-adv-x="1250" 
d="M256 875c-3 0 -6 3 -6 6v113c0 3 3 6 6 6h613c3 0 6 -3 6 -6v-113c0 -3 -3 -6 -6 -6h-613zM631 375c-3 0 -6 3 -6 6v113c0 3 3 6 6 6h113c3 0 6 -3 6 -6v-113c0 -3 -3 -6 -6 -6h-113zM881 375c-3 0 -6 3 -6 6v488c0 3 3 6 6 6h113c3 0 6 -3 6 -6v-488c0 -3 -3 -6 -6 -6
h-113zM131 250c-3 0 -6 3 -6 6v613c0 3 3 6 6 6h113c3 0 6 -3 6 -6v-613c0 -3 -3 -6 -6 -6h-113zM756 250c-3 0 -6 3 -6 6v113c0 3 3 6 6 6h113c3 0 6 -3 6 -6v-113c0 -3 -3 -6 -6 -6h-113zM256 125c-3 0 -6 3 -6 6v113c0 3 3 6 6 6h488c3 0 6 -3 6 -6v-113
c0 -3 -3 -6 -6 -6h-488zM881 125c-3 0 -6 3 -6 6v113c0 3 3 6 6 6h113c3 0 6 -3 6 -6v-113c0 -3 -3 -6 -6 -6h-113z" />
    <glyph glyph-name="r" unicode="r" horiz-adv-x="1250" 
d="M131 875c-3 0 -6 3 -6 6v113c0 3 3 6 6 6h738c3 0 6 -3 6 -6v-113c0 -3 -3 -6 -6 -6h-494v-250h494c3 0 6 -3 6 -6v-113c0 -3 -3 -6 -6 -6h-244v-119c0 -3 -3 -6 -6 -6h-113c-3 0 -6 3 -6 6v119h-125v-250h119c3 0 6 -3 6 -6v-113c0 -3 -3 -6 -6 -6h-363c-3 0 -6 3 -6 6
v113c0 3 3 6 6 6h119v625h-119zM881 625c-3 0 -6 3 -6 6v238c0 3 3 6 6 6h113c3 0 6 -3 6 -6v-238c0 -3 -3 -6 -6 -6h-113zM631 250c-3 0 -6 3 -6 6v113c0 3 3 6 6 6h113c3 0 6 -3 6 -6v-113c0 -3 -3 -6 -6 -6h-113zM756 125c-3 0 -6 3 -6 6v113c0 3 3 6 6 6h238
c3 0 6 -3 6 -6v-113c0 -3 -3 -6 -6 -6h-238z" />
    <glyph glyph-name="s" unicode="s" 
d="M131 750c-3 0 -6 3 -6 6v113c0 3 3 6 6 6h119v119c0 3 3 6 6 6h613c3 0 6 -3 6 -6v-119h119c3 0 6 -3 6 -6v-238c0 -3 -3 -6 -6 -6h-113c-3 0 -6 3 -6 6v119h-119c-3 0 -6 3 -6 6v119h-375v-119c0 -3 -3 -6 -6 -6h-238zM381 625c-3 0 -6 3 -6 6v113c0 3 3 6 6 6h113
c3 0 6 -3 6 -6v-113c0 -3 -3 -6 -6 -6h-113zM506 500c-3 0 -6 3 -6 6v113c0 3 3 6 6 6h113c3 0 6 -3 6 -6v-113c0 -3 -3 -6 -6 -6h-113zM6 250c-3 0 -6 3 -6 6v113c0 3 3 6 6 6h119v119c0 3 3 6 6 6h113c3 0 6 -3 6 -6v-238c0 -3 -3 -6 -6 -6h-238zM256 125c-3 0 -6 3 -6 6
v113c0 3 3 6 6 6h369v244c0 3 3 6 6 6h113c3 0 6 -3 6 -6v-119h119c3 0 6 -3 6 -6v-238c0 -3 -3 -6 -6 -6h-613z" />
    <glyph glyph-name="t" unicode="t" 
d="M131 750c-3 0 -6 3 -6 6v238c0 3 3 6 6 6h863c3 0 6 -3 6 -6v-238c0 -3 -3 -6 -6 -6h-113c-3 0 -6 3 -6 6v119h-250v-625h119c3 0 6 -3 6 -6v-113c0 -3 -3 -6 -6 -6h-363c-3 0 -6 3 -6 6v113c0 3 3 6 6 6h119v625h-250v-119c0 -3 -3 -6 -6 -6h-113z" />
    <glyph glyph-name="u" unicode="u" horiz-adv-x="1250" 
d="M131 875c-3 0 -6 3 -6 6v113c0 3 3 6 6 6h363c3 0 6 -3 6 -6v-113c0 -3 -3 -6 -6 -6h-119v-619c0 -3 -3 -6 -6 -6h-113c-3 0 -6 3 -6 6v619h-119zM631 875c-3 0 -6 3 -6 6v113c0 3 3 6 6 6h363c3 0 6 -3 6 -6v-113c0 -3 -3 -6 -6 -6h-119v-619c0 -3 -3 -6 -6 -6h-113
c-3 0 -6 3 -6 6v619h-119zM381 125c-3 0 -6 3 -6 6v113c0 3 3 6 6 6h363c3 0 6 -3 6 -6v-113c0 -3 -3 -6 -6 -6h-363z" />
    <glyph glyph-name="v" unicode="v" horiz-adv-x="1250" 
d="M131 875c-3 0 -6 3 -6 6v113c0 3 3 6 6 6h363c3 0 6 -3 6 -6v-113c0 -3 -3 -6 -6 -6h-119v-494c0 -3 -3 -6 -6 -6h-113c-3 0 -6 3 -6 6v494h-119zM631 875c-3 0 -6 3 -6 6v113c0 3 3 6 6 6h363c3 0 6 -3 6 -6v-113c0 -3 -3 -6 -6 -6h-119v-494c0 -3 -3 -6 -6 -6h-113
c-3 0 -6 3 -6 6v494h-119zM381 250c-3 0 -6 3 -6 6v113c0 3 3 6 6 6h113c3 0 6 -3 6 -6v-113c0 -3 -3 -6 -6 -6h-113zM631 250c-3 0 -6 3 -6 6v113c0 3 3 6 6 6h113c3 0 6 -3 6 -6v-113c0 -3 -3 -6 -6 -6h-113zM506 125c-3 0 -6 3 -6 6v113c0 3 3 6 6 6h113c3 0 6 -3 6 -6
v-113c0 -3 -3 -6 -6 -6h-113z" />
    <glyph glyph-name="w" unicode="w" horiz-adv-x="1250" 
d="M131 875c-3 0 -6 3 -6 6v113c0 3 3 6 6 6h363c3 0 6 -3 6 -6v-113c0 -3 -3 -6 -6 -6h-119v-494c0 -3 -3 -6 -6 -6h-113c-3 0 -6 3 -6 6v494h-119zM631 875c-3 0 -6 3 -6 6v113c0 3 3 6 6 6h363c3 0 6 -3 6 -6v-113c0 -3 -3 -6 -6 -6h-119v-494c0 -3 -3 -6 -6 -6h-113
c-3 0 -6 3 -6 6v494h-119zM506 375c-3 0 -6 3 -6 6v238c0 3 3 6 6 6h113c3 0 6 -3 6 -6v-238c0 -3 -3 -6 -6 -6h-113zM381 125c-3 0 -6 3 -6 6v238c0 3 3 6 6 6h113c3 0 6 -3 6 -6v-238c0 -3 -3 -6 -6 -6h-113zM631 125c-3 0 -6 3 -6 6v238c0 3 3 6 6 6h113c3 0 6 -3 6 -6
v-238c0 -3 -3 -6 -6 -6h-113z" />
    <glyph glyph-name="x" unicode="x" horiz-adv-x="1250" 
d="M131 875c-3 0 -6 3 -6 6v113c0 3 3 6 6 6h363c3 0 6 -3 6 -6v-113c0 -3 -3 -6 -6 -6h-119v-119c0 -3 -3 -6 -6 -6h-113c-3 0 -6 3 -6 6v119h-119zM631 875c-3 0 -6 3 -6 6v113c0 3 3 6 6 6h363c3 0 6 -3 6 -6v-113c0 -3 -3 -6 -6 -6h-119v-119c0 -3 -3 -6 -6 -6h-113
c-3 0 -6 3 -6 6v119h-119zM381 625c-3 0 -6 3 -6 6v113c0 3 3 6 6 6h113c3 0 6 -3 6 -6v-113c0 -3 -3 -6 -6 -6h-113zM631 625c-3 0 -6 3 -6 6v113c0 3 3 6 6 6h113c3 0 6 -3 6 -6v-113c0 -3 -3 -6 -6 -6h-113zM506 500c-3 0 -6 3 -6 6v113c0 3 3 6 6 6h113c3 0 6 -3 6 -6
v-113c0 -3 -3 -6 -6 -6h-113zM381 375c-3 0 -6 3 -6 6v113c0 3 3 6 6 6h113c3 0 6 -3 6 -6v-113c0 -3 -3 -6 -6 -6h-113zM631 375c-3 0 -6 3 -6 6v113c0 3 3 6 6 6h113c3 0 6 -3 6 -6v-113c0 -3 -3 -6 -6 -6h-113zM131 125c-3 0 -6 3 -6 6v113c0 3 3 6 6 6h119v119
c0 3 3 6 6 6h113c3 0 6 -3 6 -6v-119h119c3 0 6 -3 6 -6v-113c0 -3 -3 -6 -6 -6h-363zM631 125c-3 0 -6 3 -6 6v113c0 3 3 6 6 6h119v119c0 3 3 6 6 6h113c3 0 6 -3 6 -6v-119h119c3 0 6 -3 6 -6v-113c0 -3 -3 -6 -6 -6h-363z" />
    <glyph glyph-name="y" unicode="y" horiz-adv-x="1250" 
d="M131 875c-3 0 -6 3 -6 6v113c0 3 3 6 6 6h363c3 0 6 -3 6 -6v-113c0 -3 -3 -6 -6 -6h-119v-244c0 -3 -3 -6 -6 -6h-113c-3 0 -6 3 -6 6v244h-119zM631 875c-3 0 -6 3 -6 6v113c0 3 3 6 6 6h363c3 0 6 -3 6 -6v-113c0 -3 -3 -6 -6 -6h-119v-244c0 -3 -3 -6 -6 -6h-113
c-3 0 -6 3 -6 6v244h-119zM381 500c-3 0 -6 3 -6 6v113c0 3 3 6 6 6h113c3 0 6 -3 6 -6v-113c0 -3 -3 -6 -6 -6h-113zM631 500c-3 0 -6 3 -6 6v113c0 3 3 6 6 6h113c3 0 6 -3 6 -6v-113c0 -3 -3 -6 -6 -6h-113zM381 125c-3 0 -6 3 -6 6v113c0 3 3 6 6 6h119v244c0 3 3 6 6 6
h113c3 0 6 -3 6 -6v-244h119c3 0 6 -3 6 -6v-113c0 -3 -3 -6 -6 -6h-363z" />
    <glyph glyph-name="z" unicode="z" horiz-adv-x="1250" 
d="M131 750c-3 0 -6 3 -6 6v238c0 3 3 6 6 6h863c3 0 6 -3 6 -6v-113c0 -3 -3 -6 -6 -6h-119v-119c0 -3 -3 -6 -6 -6h-113c-3 0 -6 3 -6 6v119h-500v-119c0 -3 -3 -6 -6 -6h-113zM631 625c-3 0 -6 3 -6 6v113c0 3 3 6 6 6h113c3 0 6 -3 6 -6v-113c0 -3 -3 -6 -6 -6h-113z
M506 500c-3 0 -6 3 -6 6v113c0 3 3 6 6 6h113c3 0 6 -3 6 -6v-113c0 -3 -3 -6 -6 -6h-113zM381 375c-3 0 -6 3 -6 6v113c0 3 3 6 6 6h113c3 0 6 -3 6 -6v-113c0 -3 -3 -6 -6 -6h-113zM131 125c-3 0 -6 3 -6 6v113c0 3 3 6 6 6h119v119c0 3 3 6 6 6h113c3 0 6 -3 6 -6v-119
h500v119c0 3 3 6 6 6h113c3 0 6 -3 6 -6v-238c0 -3 -3 -6 -6 -6h-863z" />
    <glyph glyph-name="nbspace" unicode="&#xa0;" horiz-adv-x="875" 
 />
  </font>
</defs>
</svg>
