<?xml version="1.0" standalone="no"?>
<!DOCTYPE svg PUBLIC "-//W3C//DTD SVG 1.1//EN" "http://www.w3.org/Graphics/SVG/1.1/DTD/svg11.dtd" >
<svg>
<metadata>
Created by FontForge 20120731 at Wed Nov 12 12:52:33 2014
 By Ana Isabel Carvalho
This Font Software is licensed under the SIL Open Font License, Version 1.1.
You should have received a copy of the license along with this Font Software
either in stand-alone text files, human-readable headers or in the appropriate
machine-readable metadata fields within text or binary files.

If this is not the case, go to http://scripts.sil.org/OFL for all
the details including a FAQ.

This program is distributed in the hope that it will be useful, but WITHOUT ANY
WARRANTY; without even the implied warranty of MERCHANTABILITY or FITNESS FOR A
PARTICULAR PURPOSE. See the SIL Open Font License for more details.
</metadata>
<defs>
<font id="Deuperset-Regular" horiz-adv-x="1500" >
  <font-face 
    font-family="Deuperset"
    font-weight="400"
    font-stretch="normal"
    units-per-em="1500"
    panose-1="2 0 5 9 0 0 0 0 0 0"
    ascent="1300"
    descent="-200"
    x-height="1000"
    cap-height="1000"
    bbox="75 0 1425 1000"
    underline-thickness="125"
    underline-position="249"
    stemh="125"
    stemv="250"
    unicode-range="U+0020-00A0"
  />
<missing-glyph 
d="M75 0v866h1350v-866h-1350zM150 75h1200v716h-1200v-716z" />
    <glyph glyph-name=".notdef" 
d="M75 0v866h1350v-866h-1350zM150 75h1200v716h-1200v-716z" />
    <glyph glyph-name="space" unicode=" " 
 />
    <glyph glyph-name="zero" unicode="0" 
d="M631 875c-3 0 -6 3 -6 6v113c0 3 3 6 6 6h238c3 0 6 -3 6 -6v-113c0 -3 -3 -6 -6 -6h-238zM381 750c-3 0 -6 3 -6 6v113c0 3 3 6 6 6h238c3 0 6 -3 6 -6v-113c0 -3 -3 -6 -6 -6h-238zM881 625c-3 0 -6 3 -6 6v238c0 3 3 6 6 6h238c3 0 6 -3 6 -6v-119h244c3 0 6 -3 6 -6
v-363c0 -3 -3 -6 -6 -6h-238c-3 0 -6 3 -6 6v244h-244zM631 500c-3 0 -6 3 -6 6v113c0 3 3 6 6 6h238c3 0 6 -3 6 -6v-113c0 -3 -3 -6 -6 -6h-238zM131 375c-3 0 -6 3 -6 6v363c0 3 3 6 6 6h238c3 0 6 -3 6 -6v-244h244c3 0 6 -3 6 -6v-238c0 -3 -3 -6 -6 -6h-238
c-3 0 -6 3 -6 6v119h-244zM881 250c-3 0 -6 3 -6 6v113c0 3 3 6 6 6h238c3 0 6 -3 6 -6v-113c0 -3 -3 -6 -6 -6h-238zM631 125c-3 0 -6 3 -6 6v113c0 3 3 6 6 6h238c3 0 6 -3 6 -6v-113c0 -3 -3 -6 -6 -6h-238z" />
    <glyph glyph-name="one" unicode="1" 
d="M381 875c-3 0 -6 3 -6 6v113c0 3 3 6 6 6h488c3 0 6 -3 6 -6v-863c0 -3 -3 -6 -6 -6h-238c-3 0 -6 3 -6 6v744h-244z" />
    <glyph glyph-name="two" unicode="2" 
d="M381 875c-3 0 -6 3 -6 6v113c0 3 3 6 6 6h738c3 0 6 -3 6 -6v-113c0 -3 -3 -6 -6 -6h-738zM131 750c-3 0 -6 3 -6 6v113c0 3 3 6 6 6h238c3 0 6 -3 6 -6v-113c0 -3 -3 -6 -6 -6h-238zM1131 625c-3 0 -6 3 -6 6v238c0 3 3 6 6 6h238c3 0 6 -3 6 -6v-238c0 -3 -3 -6 -6 -6
h-238zM881 500c-3 0 -6 3 -6 6v113c0 3 3 6 6 6h238c3 0 6 -3 6 -6v-113c0 -3 -3 -6 -6 -6h-238zM631 375c-3 0 -6 3 -6 6v113c0 3 3 6 6 6h238c3 0 6 -3 6 -6v-113c0 -3 -3 -6 -6 -6h-238zM131 125c-3 0 -6 3 -6 6v113c0 3 3 6 6 6h244v119c0 3 3 6 6 6h238c3 0 6 -3 6 -6
v-119h744c3 0 6 -3 6 -6v-113c0 -3 -3 -6 -6 -6h-1238z" />
    <glyph glyph-name="three" unicode="3" 
d="M131 875c-3 0 -6 3 -6 6v113c0 3 3 6 6 6h1113c3 0 6 -3 6 -6v-119h119c3 0 6 -3 6 -6v-613c0 -3 -3 -6 -6 -6h-238c-3 0 -6 3 -6 6v244h-869c-3 0 -6 3 -6 6v113c0 3 3 6 6 6h869v250h-994zM131 125c-3 0 -6 3 -6 6v113c0 3 3 6 6 6h988c3 0 6 -3 6 -6v-113
c0 -3 -3 -6 -6 -6h-988z" />
    <glyph glyph-name="four" unicode="4" 
d="M131 500c-3 0 -6 3 -6 6v488c0 3 3 6 6 6h238c3 0 6 -3 6 -6v-488c0 -3 -3 -6 -6 -6h-238zM381 375c-3 0 -6 3 -6 6v113c0 3 3 6 6 6h619v494c0 3 3 6 6 6h238c3 0 6 -3 6 -6v-863c0 -3 -3 -6 -6 -6h-238c-3 0 -6 3 -6 6v244h-619z" />
    <glyph glyph-name="five" unicode="5" 
d="M131 625c-3 0 -6 3 -6 6v363c0 3 3 6 6 6h1238c3 0 6 -3 6 -6v-113c0 -3 -3 -6 -6 -6h-994v-244c0 -3 -3 -6 -6 -6h-238zM381 500c-3 0 -6 3 -6 6v113c0 3 3 6 6 6h738c3 0 6 -3 6 -6v-113c0 -3 -3 -6 -6 -6h-738zM1131 250c-3 0 -6 3 -6 6v238c0 3 3 6 6 6h238
c3 0 6 -3 6 -6v-238c0 -3 -3 -6 -6 -6h-238zM131 125c-3 0 -6 3 -6 6v113c0 3 3 6 6 6h988c3 0 6 -3 6 -6v-113c0 -3 -3 -6 -6 -6h-988z" />
    <glyph glyph-name="six" unicode="6" 
d="M381 875c-3 0 -6 3 -6 6v113c0 3 3 6 6 6h738c3 0 6 -3 6 -6v-113c0 -3 -3 -6 -6 -6h-738zM131 250c-3 0 -6 3 -6 6v613c0 3 3 6 6 6h238c3 0 6 -3 6 -6v-244h744c3 0 6 -3 6 -6v-113c0 -3 -3 -6 -6 -6h-744v-244c0 -3 -3 -6 -6 -6h-238zM1131 250c-3 0 -6 3 -6 6v238
c0 3 3 6 6 6h238c3 0 6 -3 6 -6v-238c0 -3 -3 -6 -6 -6h-238zM381 125c-3 0 -6 3 -6 6v113c0 3 3 6 6 6h738c3 0 6 -3 6 -6v-113c0 -3 -3 -6 -6 -6h-738z" />
    <glyph glyph-name="seven" unicode="7" 
d="M131 875c-3 0 -6 3 -6 6v113c0 3 3 6 6 6h1238c3 0 6 -3 6 -6v-363c0 -3 -3 -6 -6 -6h-238c-3 0 -6 3 -6 6v244h-994zM881 375c-3 0 -6 3 -6 6v238c0 3 3 6 6 6h238c3 0 6 -3 6 -6v-238c0 -3 -3 -6 -6 -6h-238zM631 125c-3 0 -6 3 -6 6v238c0 3 3 6 6 6h238
c3 0 6 -3 6 -6v-238c0 -3 -3 -6 -6 -6h-238z" />
    <glyph glyph-name="eight" unicode="8" 
d="M381 875c-3 0 -6 3 -6 6v113c0 3 3 6 6 6h738c3 0 6 -3 6 -6v-113c0 -3 -3 -6 -6 -6h-738zM131 625c-3 0 -6 3 -6 6v238c0 3 3 6 6 6h238c3 0 6 -3 6 -6v-238c0 -3 -3 -6 -6 -6h-238zM1131 625c-3 0 -6 3 -6 6v238c0 3 3 6 6 6h238c3 0 6 -3 6 -6v-238c0 -3 -3 -6 -6 -6
h-238zM381 500c-3 0 -6 3 -6 6v113c0 3 3 6 6 6h738c3 0 6 -3 6 -6v-113c0 -3 -3 -6 -6 -6h-738zM131 250c-3 0 -6 3 -6 6v238c0 3 3 6 6 6h238c3 0 6 -3 6 -6v-238c0 -3 -3 -6 -6 -6h-238zM1131 250c-3 0 -6 3 -6 6v238c0 3 3 6 6 6h238c3 0 6 -3 6 -6v-238
c0 -3 -3 -6 -6 -6h-238zM381 125c-3 0 -6 3 -6 6v113c0 3 3 6 6 6h738c3 0 6 -3 6 -6v-113c0 -3 -3 -6 -6 -6h-738z" />
    <glyph glyph-name="nine" unicode="9" 
d="M381 875c-3 0 -6 3 -6 6v113c0 3 3 6 6 6h738c3 0 6 -3 6 -6v-113c0 -3 -3 -6 -6 -6h-738zM131 625c-3 0 -6 3 -6 6v238c0 3 3 6 6 6h238c3 0 6 -3 6 -6v-238c0 -3 -3 -6 -6 -6h-238zM381 500c-3 0 -6 3 -6 6v113c0 3 3 6 6 6h744v244c0 3 3 6 6 6h238c3 0 6 -3 6 -6
v-738c0 -3 -3 -6 -6 -6h-238c-3 0 -6 3 -6 6v369h-744z" />
    <glyph glyph-name="A" unicode="A" 
d="M631 875c-3 0 -6 3 -6 6v113c0 3 3 6 6 6h238c3 0 6 -3 6 -6v-113c0 -3 -3 -6 -6 -6h-238zM381 750c-3 0 -6 3 -6 6v113c0 3 3 6 6 6h238c3 0 6 -3 6 -6v-113c0 -3 -3 -6 -6 -6h-238zM881 750c-3 0 -6 3 -6 6v113c0 3 3 6 6 6h238c3 0 6 -3 6 -6v-113c0 -3 -3 -6 -6 -6
h-238zM131 125c-3 0 -6 3 -6 6v613c0 3 3 6 6 6h238c3 0 6 -3 6 -6v-244h750v244c0 3 3 6 6 6h238c3 0 6 -3 6 -6v-613c0 -3 -3 -6 -6 -6h-238c-3 0 -6 3 -6 6v244h-750v-244c0 -3 -3 -6 -6 -6h-238z" />
    <glyph glyph-name="B" unicode="B" 
d="M1131 625c-3 0 -6 3 -6 6v238c0 3 3 6 6 6h238c3 0 6 -3 6 -6v-238c0 -3 -3 -6 -6 -6h-238zM1131 250c-3 0 -6 3 -6 6v238c0 3 3 6 6 6h238c3 0 6 -3 6 -6v-238c0 -3 -3 -6 -6 -6h-238zM131 125c-3 0 -6 3 -6 6v863c0 3 3 6 6 6h988c3 0 6 -3 6 -6v-113c0 -3 -3 -6 -6 -6
h-744v-250h744c3 0 6 -3 6 -6v-113c0 -3 -3 -6 -6 -6h-744v-250h744c3 0 6 -3 6 -6v-113c0 -3 -3 -6 -6 -6h-988z" />
    <glyph glyph-name="C" unicode="C" 
d="M631 875c-3 0 -6 3 -6 6v113c0 3 3 6 6 6h738c3 0 6 -3 6 -6v-113c0 -3 -3 -6 -6 -6h-738zM381 750c-3 0 -6 3 -6 6v113c0 3 3 6 6 6h238c3 0 6 -3 6 -6v-113c0 -3 -3 -6 -6 -6h-238zM131 375c-3 0 -6 3 -6 6v363c0 3 3 6 6 6h238c3 0 6 -3 6 -6v-363c0 -3 -3 -6 -6 -6
h-238zM381 250c-3 0 -6 3 -6 6v113c0 3 3 6 6 6h238c3 0 6 -3 6 -6v-113c0 -3 -3 -6 -6 -6h-238zM631 125c-3 0 -6 3 -6 6v113c0 3 3 6 6 6h738c3 0 6 -3 6 -6v-113c0 -3 -3 -6 -6 -6h-738z" />
    <glyph glyph-name="D" unicode="D" 
d="M631 750c-3 0 -6 3 -6 6v113c0 3 3 6 6 6h238c3 0 6 -3 6 -6v-113c0 -3 -3 -6 -6 -6h-238zM881 625c-3 0 -6 3 -6 6v113c0 3 3 6 6 6h238c3 0 6 -3 6 -6v-113c0 -3 -3 -6 -6 -6h-238zM1131 375c-3 0 -6 3 -6 6v238c0 3 3 6 6 6h238c3 0 6 -3 6 -6v-238c0 -3 -3 -6 -6 -6
h-238zM881 250c-3 0 -6 3 -6 6v113c0 3 3 6 6 6h238c3 0 6 -3 6 -6v-113c0 -3 -3 -6 -6 -6h-238zM131 125c-3 0 -6 3 -6 6v863c0 3 3 6 6 6h488c3 0 6 -3 6 -6v-113c0 -3 -3 -6 -6 -6h-244v-625h494c3 0 6 -3 6 -6v-113c0 -3 -3 -6 -6 -6h-738z" />
    <glyph glyph-name="E" unicode="E" 
d="M131 125c-3 0 -6 3 -6 6v863c0 3 3 6 6 6h1238c3 0 6 -3 6 -6v-113c0 -3 -3 -6 -6 -6h-994v-250h494c3 0 6 -3 6 -6v-113c0 -3 -3 -6 -6 -6h-494v-250h994c3 0 6 -3 6 -6v-113c0 -3 -3 -6 -6 -6h-1238z" />
    <glyph glyph-name="F" unicode="F" 
d="M131 125c-3 0 -6 3 -6 6v863c0 3 3 6 6 6h1238c3 0 6 -3 6 -6v-113c0 -3 -3 -6 -6 -6h-994v-250h494c3 0 6 -3 6 -6v-113c0 -3 -3 -6 -6 -6h-494v-369c0 -3 -3 -6 -6 -6h-238z" />
    <glyph glyph-name="G" unicode="G" 
d="M631 875c-3 0 -6 3 -6 6v113c0 3 3 6 6 6h488c3 0 6 -3 6 -6v-113c0 -3 -3 -6 -6 -6h-488zM381 750c-3 0 -6 3 -6 6v113c0 3 3 6 6 6h238c3 0 6 -3 6 -6v-113c0 -3 -3 -6 -6 -6h-238zM881 500c-3 0 -6 3 -6 6v113c0 3 3 6 6 6h488c3 0 6 -3 6 -6v-238c0 -3 -3 -6 -6 -6
h-238c-3 0 -6 3 -6 6v119h-244zM131 375c-3 0 -6 3 -6 6v363c0 3 3 6 6 6h238c3 0 6 -3 6 -6v-363c0 -3 -3 -6 -6 -6h-238zM381 250c-3 0 -6 3 -6 6v113c0 3 3 6 6 6h238c3 0 6 -3 6 -6v-113c0 -3 -3 -6 -6 -6h-238zM881 250c-3 0 -6 3 -6 6v113c0 3 3 6 6 6h238
c3 0 6 -3 6 -6v-113c0 -3 -3 -6 -6 -6h-238zM631 125c-3 0 -6 3 -6 6v113c0 3 3 6 6 6h238c3 0 6 -3 6 -6v-113c0 -3 -3 -6 -6 -6h-238z" />
    <glyph glyph-name="H" unicode="H" 
d="M131 125c-3 0 -6 3 -6 6v863c0 3 3 6 6 6h238c3 0 6 -3 6 -6v-369h750v369c0 3 3 6 6 6h238c3 0 6 -3 6 -6v-863c0 -3 -3 -6 -6 -6h-238c-3 0 -6 3 -6 6v369h-750v-369c0 -3 -3 -6 -6 -6h-238z" />
    <glyph glyph-name="I" unicode="I" 
d="M631 125c-3 0 -6 3 -6 6v863c0 3 3 6 6 6h238c3 0 6 -3 6 -6v-863c0 -3 -3 -6 -6 -6h-238z" />
    <glyph glyph-name="J" unicode="J" 
d="M131 375c-3 0 -6 3 -6 6v113c0 3 3 6 6 6h238c3 0 6 -3 6 -6v-113c0 -3 -3 -6 -6 -6h-238zM381 250c-3 0 -6 3 -6 6v113c0 3 3 6 6 6h238c3 0 6 -3 6 -6v-113c0 -3 -3 -6 -6 -6h-238zM1131 250c-3 0 -6 3 -6 6v738c0 3 3 6 6 6h238c3 0 6 -3 6 -6v-738c0 -3 -3 -6 -6 -6
h-238zM631 125c-3 0 -6 3 -6 6v113c0 3 3 6 6 6h488c3 0 6 -3 6 -6v-113c0 -3 -3 -6 -6 -6h-488z" />
    <glyph glyph-name="K" unicode="K" 
d="M1131 875c-3 0 -6 3 -6 6v113c0 3 3 6 6 6h238c3 0 6 -3 6 -6v-113c0 -3 -3 -6 -6 -6h-238zM881 750c-3 0 -6 3 -6 6v113c0 3 3 6 6 6h238c3 0 6 -3 6 -6v-113c0 -3 -3 -6 -6 -6h-238zM631 625c-3 0 -6 3 -6 6v113c0 3 3 6 6 6h238c3 0 6 -3 6 -6v-113c0 -3 -3 -6 -6 -6
h-238zM631 375c-3 0 -6 3 -6 6v113c0 3 3 6 6 6h238c3 0 6 -3 6 -6v-113c0 -3 -3 -6 -6 -6h-238zM881 250c-3 0 -6 3 -6 6v113c0 3 3 6 6 6h238c3 0 6 -3 6 -6v-113c0 -3 -3 -6 -6 -6h-238zM131 125c-3 0 -6 3 -6 6v863c0 3 3 6 6 6h238c3 0 6 -3 6 -6v-369h244
c3 0 6 -3 6 -6v-113c0 -3 -3 -6 -6 -6h-244v-369c0 -3 -3 -6 -6 -6h-238zM1131 125c-3 0 -6 3 -6 6v113c0 3 3 6 6 6h238c3 0 6 -3 6 -6v-113c0 -3 -3 -6 -6 -6h-238z" />
    <glyph glyph-name="L" unicode="L" 
d="M131 125c-3 0 -6 3 -6 6v863c0 3 3 6 6 6h238c3 0 6 -3 6 -6v-744h994c3 0 6 -3 6 -6v-113c0 -3 -3 -6 -6 -6h-1238z" />
    <glyph glyph-name="M" unicode="M" 
d="M881 750c-3 0 -6 3 -6 6v113c0 3 3 6 6 6h244v119c0 3 3 6 6 6h238c3 0 6 -3 6 -6v-863c0 -3 -3 -6 -6 -6h-238c-3 0 -6 3 -6 6v619h-244zM631 625c-3 0 -6 3 -6 6v113c0 3 3 6 6 6h238c3 0 6 -3 6 -6v-113c0 -3 -3 -6 -6 -6h-238zM131 125c-3 0 -6 3 -6 6v863
c0 3 3 6 6 6h238c3 0 6 -3 6 -6v-119h244c3 0 6 -3 6 -6v-113c0 -3 -3 -6 -6 -6h-244v-619c0 -3 -3 -6 -6 -6h-238z" />
    <glyph glyph-name="N" unicode="N" 
d="M631 625c-3 0 -6 3 -6 6v113c0 3 3 6 6 6h238c3 0 6 -3 6 -6v-113c0 -3 -3 -6 -6 -6h-238zM881 500c-3 0 -6 3 -6 6v113c0 3 3 6 6 6h244v369c0 3 3 6 6 6h238c3 0 6 -3 6 -6v-863c0 -3 -3 -6 -6 -6h-238c-3 0 -6 3 -6 6v369h-244zM131 125c-3 0 -6 3 -6 6v863
c0 3 3 6 6 6h238c3 0 6 -3 6 -6v-119h244c3 0 6 -3 6 -6v-113c0 -3 -3 -6 -6 -6h-244v-619c0 -3 -3 -6 -6 -6h-238z" />
    <glyph glyph-name="O" unicode="O" 
d="M631 875c-3 0 -6 3 -6 6v113c0 3 3 6 6 6h238c3 0 6 -3 6 -6v-113c0 -3 -3 -6 -6 -6h-238zM381 750c-3 0 -6 3 -6 6v113c0 3 3 6 6 6h238c3 0 6 -3 6 -6v-113c0 -3 -3 -6 -6 -6h-238zM881 750c-3 0 -6 3 -6 6v113c0 3 3 6 6 6h238c3 0 6 -3 6 -6v-113c0 -3 -3 -6 -6 -6
h-238zM131 375c-3 0 -6 3 -6 6v363c0 3 3 6 6 6h238c3 0 6 -3 6 -6v-363c0 -3 -3 -6 -6 -6h-238zM1131 375c-3 0 -6 3 -6 6v363c0 3 3 6 6 6h238c3 0 6 -3 6 -6v-363c0 -3 -3 -6 -6 -6h-238zM381 250c-3 0 -6 3 -6 6v113c0 3 3 6 6 6h238c3 0 6 -3 6 -6v-113
c0 -3 -3 -6 -6 -6h-238zM881 250c-3 0 -6 3 -6 6v113c0 3 3 6 6 6h238c3 0 6 -3 6 -6v-113c0 -3 -3 -6 -6 -6h-238zM631 125c-3 0 -6 3 -6 6v113c0 3 3 6 6 6h238c3 0 6 -3 6 -6v-113c0 -3 -3 -6 -6 -6h-238z" />
    <glyph glyph-name="P" unicode="P" 
d="M1131 625c-3 0 -6 3 -6 6v238c0 3 3 6 6 6h238c3 0 6 -3 6 -6v-238c0 -3 -3 -6 -6 -6h-238zM131 125c-3 0 -6 3 -6 6v863c0 3 3 6 6 6h988c3 0 6 -3 6 -6v-113c0 -3 -3 -6 -6 -6h-744v-250h744c3 0 6 -3 6 -6v-113c0 -3 -3 -6 -6 -6h-744v-369c0 -3 -3 -6 -6 -6h-238z
" />
    <glyph glyph-name="Q" unicode="Q" 
d="M631 875c-3 0 -6 3 -6 6v113c0 3 3 6 6 6h238c3 0 6 -3 6 -6v-113c0 -3 -3 -6 -6 -6h-238zM381 750c-3 0 -6 3 -6 6v113c0 3 3 6 6 6h238c3 0 6 -3 6 -6v-113c0 -3 -3 -6 -6 -6h-238zM881 750c-3 0 -6 3 -6 6v113c0 3 3 6 6 6h238c3 0 6 -3 6 -6v-113c0 -3 -3 -6 -6 -6
h-238zM131 375c-3 0 -6 3 -6 6v363c0 3 3 6 6 6h238c3 0 6 -3 6 -6v-363c0 -3 -3 -6 -6 -6h-238zM756 375c-3 0 -6 3 -6 6v113c0 3 3 6 6 6h238c3 0 6 -3 6 -6v-119h119c3 0 6 -3 6 -6v-119h119c3 0 6 -3 6 -6v-113c0 -3 -3 -6 -6 -6h-238c-3 0 -6 3 -6 6v119h-119
c-3 0 -6 3 -6 6v119h-119zM1131 375c-3 0 -6 3 -6 6v363c0 3 3 6 6 6h238c3 0 6 -3 6 -6v-363c0 -3 -3 -6 -6 -6h-238zM381 250c-3 0 -6 3 -6 6v113c0 3 3 6 6 6h238c3 0 6 -3 6 -6v-113c0 -3 -3 -6 -6 -6h-238zM631 125c-3 0 -6 3 -6 6v113c0 3 3 6 6 6h238c3 0 6 -3 6 -6
v-113c0 -3 -3 -6 -6 -6h-238z" />
    <glyph glyph-name="R" unicode="R" 
d="M1131 625c-3 0 -6 3 -6 6v238c0 3 3 6 6 6h238c3 0 6 -3 6 -6v-238c0 -3 -3 -6 -6 -6h-238zM631 375c-3 0 -6 3 -6 6v119h-250v-369c0 -3 -3 -6 -6 -6h-238c-3 0 -6 3 -6 6v863c0 3 3 6 6 6h988c3 0 6 -3 6 -6v-113c0 -3 -3 -6 -6 -6h-744v-250h744c3 0 6 -3 6 -6v-113
c0 -3 -3 -6 -6 -6h-244v-119c0 -3 -3 -6 -6 -6h-238zM881 250c-3 0 -6 3 -6 6v113c0 3 3 6 6 6h238c3 0 6 -3 6 -6v-113c0 -3 -3 -6 -6 -6h-238zM1131 125c-3 0 -6 3 -6 6v113c0 3 3 6 6 6h238c3 0 6 -3 6 -6v-113c0 -3 -3 -6 -6 -6h-238z" />
    <glyph glyph-name="S" unicode="S" 
d="M381 875c-3 0 -6 3 -6 6v113c0 3 3 6 6 6h738c3 0 6 -3 6 -6v-113c0 -3 -3 -6 -6 -6h-738zM131 750c-3 0 -6 3 -6 6v113c0 3 3 6 6 6h238c3 0 6 -3 6 -6v-113c0 -3 -3 -6 -6 -6h-238zM1131 750c-3 0 -6 3 -6 6v113c0 3 3 6 6 6h238c3 0 6 -3 6 -6v-113c0 -3 -3 -6 -6 -6
h-238zM381 625c-3 0 -6 3 -6 6v113c0 3 3 6 6 6h238c3 0 6 -3 6 -6v-113c0 -3 -3 -6 -6 -6h-238zM631 500c-3 0 -6 3 -6 6v113c0 3 3 6 6 6h238c3 0 6 -3 6 -6v-113c0 -3 -3 -6 -6 -6h-238zM881 375c-3 0 -6 3 -6 6v113c0 3 3 6 6 6h238c3 0 6 -3 6 -6v-113
c0 -3 -3 -6 -6 -6h-238zM131 250c-3 0 -6 3 -6 6v113c0 3 3 6 6 6h238c3 0 6 -3 6 -6v-113c0 -3 -3 -6 -6 -6h-238zM1131 250c-3 0 -6 3 -6 6v113c0 3 3 6 6 6h238c3 0 6 -3 6 -6v-113c0 -3 -3 -6 -6 -6h-238zM381 125c-3 0 -6 3 -6 6v113c0 3 3 6 6 6h738c3 0 6 -3 6 -6
v-113c0 -3 -3 -6 -6 -6h-738z" />
    <glyph glyph-name="T" unicode="T" 
d="M131 875c-3 0 -6 3 -6 6v113c0 3 3 6 6 6h1238c3 0 6 -3 6 -6v-113c0 -3 -3 -6 -6 -6h-494v-744c0 -3 -3 -6 -6 -6h-238c-3 0 -6 3 -6 6v744h-494z" />
    <glyph glyph-name="U" unicode="U" 
d="M131 125c-3 0 -6 3 -6 6v863c0 3 3 6 6 6h238c3 0 6 -3 6 -6v-744h750v744c0 3 3 6 6 6h238c3 0 6 -3 6 -6v-863c0 -3 -3 -6 -6 -6h-1238z" />
    <glyph glyph-name="V" unicode="V" 
d="M131 375c-3 0 -6 3 -6 6v613c0 3 3 6 6 6h238c3 0 6 -3 6 -6v-613c0 -3 -3 -6 -6 -6h-238zM1131 375c-3 0 -6 3 -6 6v613c0 3 3 6 6 6h238c3 0 6 -3 6 -6v-613c0 -3 -3 -6 -6 -6h-238zM381 250c-3 0 -6 3 -6 6v113c0 3 3 6 6 6h238c3 0 6 -3 6 -6v-113c0 -3 -3 -6 -6 -6
h-238zM881 250c-3 0 -6 3 -6 6v113c0 3 3 6 6 6h238c3 0 6 -3 6 -6v-113c0 -3 -3 -6 -6 -6h-238zM631 125c-3 0 -6 3 -6 6v113c0 3 3 6 6 6h238c3 0 6 -3 6 -6v-113c0 -3 -3 -6 -6 -6h-238z" />
    <glyph glyph-name="W" unicode="W" 
d="M131 250c-3 0 -6 3 -6 6v738c0 3 3 6 6 6h238c3 0 6 -3 6 -6v-738c0 -3 -3 -6 -6 -6h-238zM631 250c-3 0 -6 3 -6 6v363c0 3 3 6 6 6h238c3 0 6 -3 6 -6v-363c0 -3 -3 -6 -6 -6h-238zM1131 250c-3 0 -6 3 -6 6v738c0 3 3 6 6 6h238c3 0 6 -3 6 -6v-738c0 -3 -3 -6 -6 -6
h-238zM381 125c-3 0 -6 3 -6 6v113c0 3 3 6 6 6h238c3 0 6 -3 6 -6v-113c0 -3 -3 -6 -6 -6h-238zM881 125c-3 0 -6 3 -6 6v113c0 3 3 6 6 6h238c3 0 6 -3 6 -6v-113c0 -3 -3 -6 -6 -6h-238z" />
    <glyph glyph-name="X" unicode="X" 
d="M131 750c-3 0 -6 3 -6 6v238c0 3 3 6 6 6h238c3 0 6 -3 6 -6v-238c0 -3 -3 -6 -6 -6h-238zM1131 750c-3 0 -6 3 -6 6v238c0 3 3 6 6 6h238c3 0 6 -3 6 -6v-238c0 -3 -3 -6 -6 -6h-238zM381 625c-3 0 -6 3 -6 6v113c0 3 3 6 6 6h238c3 0 6 -3 6 -6v-113c0 -3 -3 -6 -6 -6
h-238zM881 625c-3 0 -6 3 -6 6v113c0 3 3 6 6 6h238c3 0 6 -3 6 -6v-113c0 -3 -3 -6 -6 -6h-238zM631 500c-3 0 -6 3 -6 6v113c0 3 3 6 6 6h238c3 0 6 -3 6 -6v-113c0 -3 -3 -6 -6 -6h-238zM381 375c-3 0 -6 3 -6 6v113c0 3 3 6 6 6h238c3 0 6 -3 6 -6v-113
c0 -3 -3 -6 -6 -6h-238zM881 375c-3 0 -6 3 -6 6v113c0 3 3 6 6 6h238c3 0 6 -3 6 -6v-113c0 -3 -3 -6 -6 -6h-238zM131 125c-3 0 -6 3 -6 6v238c0 3 3 6 6 6h238c3 0 6 -3 6 -6v-238c0 -3 -3 -6 -6 -6h-238zM1131 125c-3 0 -6 3 -6 6v238c0 3 3 6 6 6h238c3 0 6 -3 6 -6
v-238c0 -3 -3 -6 -6 -6h-238z" />
    <glyph glyph-name="Y" unicode="Y" 
d="M131 875c-3 0 -6 3 -6 6v113c0 3 3 6 6 6h238c3 0 6 -3 6 -6v-113c0 -3 -3 -6 -6 -6h-238zM1131 875c-3 0 -6 3 -6 6v113c0 3 3 6 6 6h238c3 0 6 -3 6 -6v-113c0 -3 -3 -6 -6 -6h-238zM381 750c-3 0 -6 3 -6 6v113c0 3 3 6 6 6h238c3 0 6 -3 6 -6v-113c0 -3 -3 -6 -6 -6
h-238zM881 750c-3 0 -6 3 -6 6v113c0 3 3 6 6 6h238c3 0 6 -3 6 -6v-113c0 -3 -3 -6 -6 -6h-238zM631 125c-3 0 -6 3 -6 6v613c0 3 3 6 6 6h238c3 0 6 -3 6 -6v-613c0 -3 -3 -6 -6 -6h-238z" />
    <glyph glyph-name="Z" unicode="Z" 
d="M131 875c-3 0 -6 3 -6 6v113c0 3 3 6 6 6h1238c3 0 6 -3 6 -6v-238c0 -3 -3 -6 -6 -6h-238c-3 0 -6 3 -6 6v119h-994zM881 625c-3 0 -6 3 -6 6v113c0 3 3 6 6 6h238c3 0 6 -3 6 -6v-113c0 -3 -3 -6 -6 -6h-238zM631 500c-3 0 -6 3 -6 6v113c0 3 3 6 6 6h238
c3 0 6 -3 6 -6v-113c0 -3 -3 -6 -6 -6h-238zM381 375c-3 0 -6 3 -6 6v113c0 3 3 6 6 6h238c3 0 6 -3 6 -6v-113c0 -3 -3 -6 -6 -6h-238zM131 125c-3 0 -6 3 -6 6v238c0 3 3 6 6 6h238c3 0 6 -3 6 -6v-119h994c3 0 6 -3 6 -6v-113c0 -3 -3 -6 -6 -6h-1238z" />
    <glyph glyph-name="a" unicode="a" 
d="M631 875c-3 0 -6 3 -6 6v113c0 3 3 6 6 6h238c3 0 6 -3 6 -6v-113c0 -3 -3 -6 -6 -6h-238zM381 750c-3 0 -6 3 -6 6v113c0 3 3 6 6 6h238c3 0 6 -3 6 -6v-113c0 -3 -3 -6 -6 -6h-238zM881 750c-3 0 -6 3 -6 6v113c0 3 3 6 6 6h238c3 0 6 -3 6 -6v-113c0 -3 -3 -6 -6 -6
h-238zM131 125c-3 0 -6 3 -6 6v613c0 3 3 6 6 6h238c3 0 6 -3 6 -6v-244h750v244c0 3 3 6 6 6h238c3 0 6 -3 6 -6v-613c0 -3 -3 -6 -6 -6h-238c-3 0 -6 3 -6 6v244h-750v-244c0 -3 -3 -6 -6 -6h-238z" />
    <glyph glyph-name="b" unicode="b" 
d="M1131 625c-3 0 -6 3 -6 6v238c0 3 3 6 6 6h238c3 0 6 -3 6 -6v-238c0 -3 -3 -6 -6 -6h-238zM1131 250c-3 0 -6 3 -6 6v238c0 3 3 6 6 6h238c3 0 6 -3 6 -6v-238c0 -3 -3 -6 -6 -6h-238zM131 125c-3 0 -6 3 -6 6v863c0 3 3 6 6 6h988c3 0 6 -3 6 -6v-113c0 -3 -3 -6 -6 -6
h-744v-250h744c3 0 6 -3 6 -6v-113c0 -3 -3 -6 -6 -6h-744v-250h744c3 0 6 -3 6 -6v-113c0 -3 -3 -6 -6 -6h-988z" />
    <glyph glyph-name="c" unicode="c" 
d="M631 875c-3 0 -6 3 -6 6v113c0 3 3 6 6 6h738c3 0 6 -3 6 -6v-113c0 -3 -3 -6 -6 -6h-738zM381 750c-3 0 -6 3 -6 6v113c0 3 3 6 6 6h238c3 0 6 -3 6 -6v-113c0 -3 -3 -6 -6 -6h-238zM131 375c-3 0 -6 3 -6 6v363c0 3 3 6 6 6h238c3 0 6 -3 6 -6v-363c0 -3 -3 -6 -6 -6
h-238zM381 250c-3 0 -6 3 -6 6v113c0 3 3 6 6 6h238c3 0 6 -3 6 -6v-113c0 -3 -3 -6 -6 -6h-238zM631 125c-3 0 -6 3 -6 6v113c0 3 3 6 6 6h738c3 0 6 -3 6 -6v-113c0 -3 -3 -6 -6 -6h-738z" />
    <glyph glyph-name="d" unicode="d" 
d="M631 750c-3 0 -6 3 -6 6v113c0 3 3 6 6 6h238c3 0 6 -3 6 -6v-113c0 -3 -3 -6 -6 -6h-238zM881 625c-3 0 -6 3 -6 6v113c0 3 3 6 6 6h238c3 0 6 -3 6 -6v-113c0 -3 -3 -6 -6 -6h-238zM1131 375c-3 0 -6 3 -6 6v238c0 3 3 6 6 6h238c3 0 6 -3 6 -6v-238c0 -3 -3 -6 -6 -6
h-238zM881 250c-3 0 -6 3 -6 6v113c0 3 3 6 6 6h238c3 0 6 -3 6 -6v-113c0 -3 -3 -6 -6 -6h-238zM131 125c-3 0 -6 3 -6 6v863c0 3 3 6 6 6h488c3 0 6 -3 6 -6v-113c0 -3 -3 -6 -6 -6h-244v-625h494c3 0 6 -3 6 -6v-113c0 -3 -3 -6 -6 -6h-738z" />
    <glyph glyph-name="e" unicode="e" 
d="M131 125c-3 0 -6 3 -6 6v863c0 3 3 6 6 6h1238c3 0 6 -3 6 -6v-113c0 -3 -3 -6 -6 -6h-994v-250h494c3 0 6 -3 6 -6v-113c0 -3 -3 -6 -6 -6h-494v-250h994c3 0 6 -3 6 -6v-113c0 -3 -3 -6 -6 -6h-1238z" />
    <glyph glyph-name="f" unicode="f" 
d="M131 125c-3 0 -6 3 -6 6v863c0 3 3 6 6 6h1238c3 0 6 -3 6 -6v-113c0 -3 -3 -6 -6 -6h-994v-250h494c3 0 6 -3 6 -6v-113c0 -3 -3 -6 -6 -6h-494v-369c0 -3 -3 -6 -6 -6h-238z" />
    <glyph glyph-name="g" unicode="g" 
d="M631 875c-3 0 -6 3 -6 6v113c0 3 3 6 6 6h488c3 0 6 -3 6 -6v-113c0 -3 -3 -6 -6 -6h-488zM381 750c-3 0 -6 3 -6 6v113c0 3 3 6 6 6h238c3 0 6 -3 6 -6v-113c0 -3 -3 -6 -6 -6h-238zM881 500c-3 0 -6 3 -6 6v113c0 3 3 6 6 6h488c3 0 6 -3 6 -6v-238c0 -3 -3 -6 -6 -6
h-238c-3 0 -6 3 -6 6v119h-244zM131 375c-3 0 -6 3 -6 6v363c0 3 3 6 6 6h238c3 0 6 -3 6 -6v-363c0 -3 -3 -6 -6 -6h-238zM381 250c-3 0 -6 3 -6 6v113c0 3 3 6 6 6h238c3 0 6 -3 6 -6v-113c0 -3 -3 -6 -6 -6h-238zM881 250c-3 0 -6 3 -6 6v113c0 3 3 6 6 6h238
c3 0 6 -3 6 -6v-113c0 -3 -3 -6 -6 -6h-238zM631 125c-3 0 -6 3 -6 6v113c0 3 3 6 6 6h238c3 0 6 -3 6 -6v-113c0 -3 -3 -6 -6 -6h-238z" />
    <glyph glyph-name="h" unicode="h" 
d="M131 125c-3 0 -6 3 -6 6v863c0 3 3 6 6 6h238c3 0 6 -3 6 -6v-369h750v369c0 3 3 6 6 6h238c3 0 6 -3 6 -6v-863c0 -3 -3 -6 -6 -6h-238c-3 0 -6 3 -6 6v369h-750v-369c0 -3 -3 -6 -6 -6h-238z" />
    <glyph glyph-name="i" unicode="i" 
d="M631 125c-3 0 -6 3 -6 6v863c0 3 3 6 6 6h238c3 0 6 -3 6 -6v-863c0 -3 -3 -6 -6 -6h-238z" />
    <glyph glyph-name="j" unicode="j" 
d="M131 375c-3 0 -6 3 -6 6v113c0 3 3 6 6 6h238c3 0 6 -3 6 -6v-113c0 -3 -3 -6 -6 -6h-238zM381 250c-3 0 -6 3 -6 6v113c0 3 3 6 6 6h238c3 0 6 -3 6 -6v-113c0 -3 -3 -6 -6 -6h-238zM1131 250c-3 0 -6 3 -6 6v738c0 3 3 6 6 6h238c3 0 6 -3 6 -6v-738c0 -3 -3 -6 -6 -6
h-238zM631 125c-3 0 -6 3 -6 6v113c0 3 3 6 6 6h488c3 0 6 -3 6 -6v-113c0 -3 -3 -6 -6 -6h-488z" />
    <glyph glyph-name="k" unicode="k" 
d="M1131 875c-3 0 -6 3 -6 6v113c0 3 3 6 6 6h238c3 0 6 -3 6 -6v-113c0 -3 -3 -6 -6 -6h-238zM881 750c-3 0 -6 3 -6 6v113c0 3 3 6 6 6h238c3 0 6 -3 6 -6v-113c0 -3 -3 -6 -6 -6h-238zM631 625c-3 0 -6 3 -6 6v113c0 3 3 6 6 6h238c3 0 6 -3 6 -6v-113c0 -3 -3 -6 -6 -6
h-238zM631 375c-3 0 -6 3 -6 6v113c0 3 3 6 6 6h238c3 0 6 -3 6 -6v-113c0 -3 -3 -6 -6 -6h-238zM881 250c-3 0 -6 3 -6 6v113c0 3 3 6 6 6h238c3 0 6 -3 6 -6v-113c0 -3 -3 -6 -6 -6h-238zM131 125c-3 0 -6 3 -6 6v863c0 3 3 6 6 6h238c3 0 6 -3 6 -6v-369h244
c3 0 6 -3 6 -6v-113c0 -3 -3 -6 -6 -6h-244v-369c0 -3 -3 -6 -6 -6h-238zM1131 125c-3 0 -6 3 -6 6v113c0 3 3 6 6 6h238c3 0 6 -3 6 -6v-113c0 -3 -3 -6 -6 -6h-238z" />
    <glyph glyph-name="l" unicode="l" 
d="M131 125c-3 0 -6 3 -6 6v863c0 3 3 6 6 6h238c3 0 6 -3 6 -6v-744h994c3 0 6 -3 6 -6v-113c0 -3 -3 -6 -6 -6h-1238z" />
    <glyph glyph-name="m" unicode="m" 
d="M881 750c-3 0 -6 3 -6 6v113c0 3 3 6 6 6h244v119c0 3 3 6 6 6h238c3 0 6 -3 6 -6v-863c0 -3 -3 -6 -6 -6h-238c-3 0 -6 3 -6 6v619h-244zM631 625c-3 0 -6 3 -6 6v113c0 3 3 6 6 6h238c3 0 6 -3 6 -6v-113c0 -3 -3 -6 -6 -6h-238zM131 125c-3 0 -6 3 -6 6v863
c0 3 3 6 6 6h238c3 0 6 -3 6 -6v-119h244c3 0 6 -3 6 -6v-113c0 -3 -3 -6 -6 -6h-244v-619c0 -3 -3 -6 -6 -6h-238z" />
    <glyph glyph-name="n" unicode="n" 
d="M631 625c-3 0 -6 3 -6 6v113c0 3 3 6 6 6h238c3 0 6 -3 6 -6v-113c0 -3 -3 -6 -6 -6h-238zM881 500c-3 0 -6 3 -6 6v113c0 3 3 6 6 6h244v369c0 3 3 6 6 6h238c3 0 6 -3 6 -6v-863c0 -3 -3 -6 -6 -6h-238c-3 0 -6 3 -6 6v369h-244zM131 125c-3 0 -6 3 -6 6v863
c0 3 3 6 6 6h238c3 0 6 -3 6 -6v-119h244c3 0 6 -3 6 -6v-113c0 -3 -3 -6 -6 -6h-244v-619c0 -3 -3 -6 -6 -6h-238z" />
    <glyph glyph-name="o" unicode="o" 
d="M631 875c-3 0 -6 3 -6 6v113c0 3 3 6 6 6h238c3 0 6 -3 6 -6v-113c0 -3 -3 -6 -6 -6h-238zM381 750c-3 0 -6 3 -6 6v113c0 3 3 6 6 6h238c3 0 6 -3 6 -6v-113c0 -3 -3 -6 -6 -6h-238zM881 750c-3 0 -6 3 -6 6v113c0 3 3 6 6 6h238c3 0 6 -3 6 -6v-113c0 -3 -3 -6 -6 -6
h-238zM131 375c-3 0 -6 3 -6 6v363c0 3 3 6 6 6h238c3 0 6 -3 6 -6v-363c0 -3 -3 -6 -6 -6h-238zM1131 375c-3 0 -6 3 -6 6v363c0 3 3 6 6 6h238c3 0 6 -3 6 -6v-363c0 -3 -3 -6 -6 -6h-238zM381 250c-3 0 -6 3 -6 6v113c0 3 3 6 6 6h238c3 0 6 -3 6 -6v-113
c0 -3 -3 -6 -6 -6h-238zM881 250c-3 0 -6 3 -6 6v113c0 3 3 6 6 6h238c3 0 6 -3 6 -6v-113c0 -3 -3 -6 -6 -6h-238zM631 125c-3 0 -6 3 -6 6v113c0 3 3 6 6 6h238c3 0 6 -3 6 -6v-113c0 -3 -3 -6 -6 -6h-238z" />
    <glyph glyph-name="p" unicode="p" 
d="M1131 625c-3 0 -6 3 -6 6v238c0 3 3 6 6 6h238c3 0 6 -3 6 -6v-238c0 -3 -3 -6 -6 -6h-238zM131 125c-3 0 -6 3 -6 6v863c0 3 3 6 6 6h988c3 0 6 -3 6 -6v-113c0 -3 -3 -6 -6 -6h-744v-250h744c3 0 6 -3 6 -6v-113c0 -3 -3 -6 -6 -6h-744v-369c0 -3 -3 -6 -6 -6h-238z
" />
    <glyph glyph-name="q" unicode="q" 
d="M631 875c-3 0 -6 3 -6 6v113c0 3 3 6 6 6h238c3 0 6 -3 6 -6v-113c0 -3 -3 -6 -6 -6h-238zM381 750c-3 0 -6 3 -6 6v113c0 3 3 6 6 6h238c3 0 6 -3 6 -6v-113c0 -3 -3 -6 -6 -6h-238zM881 750c-3 0 -6 3 -6 6v113c0 3 3 6 6 6h238c3 0 6 -3 6 -6v-113c0 -3 -3 -6 -6 -6
h-238zM131 375c-3 0 -6 3 -6 6v363c0 3 3 6 6 6h238c3 0 6 -3 6 -6v-363c0 -3 -3 -6 -6 -6h-238zM756 375c-3 0 -6 3 -6 6v113c0 3 3 6 6 6h238c3 0 6 -3 6 -6v-119h119c3 0 6 -3 6 -6v-119h119c3 0 6 -3 6 -6v-113c0 -3 -3 -6 -6 -6h-238c-3 0 -6 3 -6 6v119h-119
c-3 0 -6 3 -6 6v119h-119zM1131 375c-3 0 -6 3 -6 6v363c0 3 3 6 6 6h238c3 0 6 -3 6 -6v-363c0 -3 -3 -6 -6 -6h-238zM381 250c-3 0 -6 3 -6 6v113c0 3 3 6 6 6h238c3 0 6 -3 6 -6v-113c0 -3 -3 -6 -6 -6h-238zM631 125c-3 0 -6 3 -6 6v113c0 3 3 6 6 6h238c3 0 6 -3 6 -6
v-113c0 -3 -3 -6 -6 -6h-238z" />
    <glyph glyph-name="r" unicode="r" 
d="M1131 625c-3 0 -6 3 -6 6v238c0 3 3 6 6 6h238c3 0 6 -3 6 -6v-238c0 -3 -3 -6 -6 -6h-238zM631 375c-3 0 -6 3 -6 6v119h-250v-369c0 -3 -3 -6 -6 -6h-238c-3 0 -6 3 -6 6v863c0 3 3 6 6 6h988c3 0 6 -3 6 -6v-113c0 -3 -3 -6 -6 -6h-744v-250h744c3 0 6 -3 6 -6v-113
c0 -3 -3 -6 -6 -6h-244v-119c0 -3 -3 -6 -6 -6h-238zM881 250c-3 0 -6 3 -6 6v113c0 3 3 6 6 6h238c3 0 6 -3 6 -6v-113c0 -3 -3 -6 -6 -6h-238zM1131 125c-3 0 -6 3 -6 6v113c0 3 3 6 6 6h238c3 0 6 -3 6 -6v-113c0 -3 -3 -6 -6 -6h-238z" />
    <glyph glyph-name="s" unicode="s" 
d="M381 875c-3 0 -6 3 -6 6v113c0 3 3 6 6 6h738c3 0 6 -3 6 -6v-113c0 -3 -3 -6 -6 -6h-738zM131 750c-3 0 -6 3 -6 6v113c0 3 3 6 6 6h238c3 0 6 -3 6 -6v-113c0 -3 -3 -6 -6 -6h-238zM1131 750c-3 0 -6 3 -6 6v113c0 3 3 6 6 6h238c3 0 6 -3 6 -6v-113c0 -3 -3 -6 -6 -6
h-238zM381 625c-3 0 -6 3 -6 6v113c0 3 3 6 6 6h238c3 0 6 -3 6 -6v-113c0 -3 -3 -6 -6 -6h-238zM631 500c-3 0 -6 3 -6 6v113c0 3 3 6 6 6h238c3 0 6 -3 6 -6v-113c0 -3 -3 -6 -6 -6h-238zM881 375c-3 0 -6 3 -6 6v113c0 3 3 6 6 6h238c3 0 6 -3 6 -6v-113
c0 -3 -3 -6 -6 -6h-238zM131 250c-3 0 -6 3 -6 6v113c0 3 3 6 6 6h238c3 0 6 -3 6 -6v-113c0 -3 -3 -6 -6 -6h-238zM1131 250c-3 0 -6 3 -6 6v113c0 3 3 6 6 6h238c3 0 6 -3 6 -6v-113c0 -3 -3 -6 -6 -6h-238zM381 125c-3 0 -6 3 -6 6v113c0 3 3 6 6 6h738c3 0 6 -3 6 -6
v-113c0 -3 -3 -6 -6 -6h-738z" />
    <glyph glyph-name="t" unicode="t" 
d="M131 875c-3 0 -6 3 -6 6v113c0 3 3 6 6 6h1238c3 0 6 -3 6 -6v-113c0 -3 -3 -6 -6 -6h-494v-744c0 -3 -3 -6 -6 -6h-238c-3 0 -6 3 -6 6v744h-494z" />
    <glyph glyph-name="u" unicode="u" 
d="M131 125c-3 0 -6 3 -6 6v863c0 3 3 6 6 6h238c3 0 6 -3 6 -6v-744h750v744c0 3 3 6 6 6h238c3 0 6 -3 6 -6v-863c0 -3 -3 -6 -6 -6h-1238z" />
    <glyph glyph-name="v" unicode="v" 
d="M131 375c-3 0 -6 3 -6 6v613c0 3 3 6 6 6h238c3 0 6 -3 6 -6v-613c0 -3 -3 -6 -6 -6h-238zM1131 375c-3 0 -6 3 -6 6v613c0 3 3 6 6 6h238c3 0 6 -3 6 -6v-613c0 -3 -3 -6 -6 -6h-238zM381 250c-3 0 -6 3 -6 6v113c0 3 3 6 6 6h238c3 0 6 -3 6 -6v-113c0 -3 -3 -6 -6 -6
h-238zM881 250c-3 0 -6 3 -6 6v113c0 3 3 6 6 6h238c3 0 6 -3 6 -6v-113c0 -3 -3 -6 -6 -6h-238zM631 125c-3 0 -6 3 -6 6v113c0 3 3 6 6 6h238c3 0 6 -3 6 -6v-113c0 -3 -3 -6 -6 -6h-238z" />
    <glyph glyph-name="w" unicode="w" 
d="M131 250c-3 0 -6 3 -6 6v738c0 3 3 6 6 6h238c3 0 6 -3 6 -6v-738c0 -3 -3 -6 -6 -6h-238zM631 250c-3 0 -6 3 -6 6v363c0 3 3 6 6 6h238c3 0 6 -3 6 -6v-363c0 -3 -3 -6 -6 -6h-238zM1131 250c-3 0 -6 3 -6 6v738c0 3 3 6 6 6h238c3 0 6 -3 6 -6v-738c0 -3 -3 -6 -6 -6
h-238zM381 125c-3 0 -6 3 -6 6v113c0 3 3 6 6 6h238c3 0 6 -3 6 -6v-113c0 -3 -3 -6 -6 -6h-238zM881 125c-3 0 -6 3 -6 6v113c0 3 3 6 6 6h238c3 0 6 -3 6 -6v-113c0 -3 -3 -6 -6 -6h-238z" />
    <glyph glyph-name="x" unicode="x" 
d="M131 750c-3 0 -6 3 -6 6v238c0 3 3 6 6 6h238c3 0 6 -3 6 -6v-238c0 -3 -3 -6 -6 -6h-238zM1131 750c-3 0 -6 3 -6 6v238c0 3 3 6 6 6h238c3 0 6 -3 6 -6v-238c0 -3 -3 -6 -6 -6h-238zM381 625c-3 0 -6 3 -6 6v113c0 3 3 6 6 6h238c3 0 6 -3 6 -6v-113c0 -3 -3 -6 -6 -6
h-238zM881 625c-3 0 -6 3 -6 6v113c0 3 3 6 6 6h238c3 0 6 -3 6 -6v-113c0 -3 -3 -6 -6 -6h-238zM631 500c-3 0 -6 3 -6 6v113c0 3 3 6 6 6h238c3 0 6 -3 6 -6v-113c0 -3 -3 -6 -6 -6h-238zM381 375c-3 0 -6 3 -6 6v113c0 3 3 6 6 6h238c3 0 6 -3 6 -6v-113
c0 -3 -3 -6 -6 -6h-238zM881 375c-3 0 -6 3 -6 6v113c0 3 3 6 6 6h238c3 0 6 -3 6 -6v-113c0 -3 -3 -6 -6 -6h-238zM131 125c-3 0 -6 3 -6 6v238c0 3 3 6 6 6h238c3 0 6 -3 6 -6v-238c0 -3 -3 -6 -6 -6h-238zM1131 125c-3 0 -6 3 -6 6v238c0 3 3 6 6 6h238c3 0 6 -3 6 -6
v-238c0 -3 -3 -6 -6 -6h-238z" />
    <glyph glyph-name="y" unicode="y" 
d="M131 875c-3 0 -6 3 -6 6v113c0 3 3 6 6 6h238c3 0 6 -3 6 -6v-113c0 -3 -3 -6 -6 -6h-238zM1131 875c-3 0 -6 3 -6 6v113c0 3 3 6 6 6h238c3 0 6 -3 6 -6v-113c0 -3 -3 -6 -6 -6h-238zM381 750c-3 0 -6 3 -6 6v113c0 3 3 6 6 6h238c3 0 6 -3 6 -6v-113c0 -3 -3 -6 -6 -6
h-238zM881 750c-3 0 -6 3 -6 6v113c0 3 3 6 6 6h238c3 0 6 -3 6 -6v-113c0 -3 -3 -6 -6 -6h-238zM631 125c-3 0 -6 3 -6 6v613c0 3 3 6 6 6h238c3 0 6 -3 6 -6v-613c0 -3 -3 -6 -6 -6h-238z" />
    <glyph glyph-name="z" unicode="z" 
d="M131 875c-3 0 -6 3 -6 6v113c0 3 3 6 6 6h1238c3 0 6 -3 6 -6v-238c0 -3 -3 -6 -6 -6h-238c-3 0 -6 3 -6 6v119h-994zM881 625c-3 0 -6 3 -6 6v113c0 3 3 6 6 6h238c3 0 6 -3 6 -6v-113c0 -3 -3 -6 -6 -6h-238zM631 500c-3 0 -6 3 -6 6v113c0 3 3 6 6 6h238
c3 0 6 -3 6 -6v-113c0 -3 -3 -6 -6 -6h-238zM381 375c-3 0 -6 3 -6 6v113c0 3 3 6 6 6h238c3 0 6 -3 6 -6v-113c0 -3 -3 -6 -6 -6h-238zM131 125c-3 0 -6 3 -6 6v238c0 3 3 6 6 6h238c3 0 6 -3 6 -6v-119h994c3 0 6 -3 6 -6v-113c0 -3 -3 -6 -6 -6h-1238z" />
    <glyph glyph-name="nbspace" unicode="&#xa0;" 
 />
  </font>
</defs>
</svg>
